<svg width="70" height="70" viewBox="0 0 70 70" fill="none" xmlns="http://www.w3.org/2000/svg">
<circle opacity="0.2" cx="35" cy="35" r="35" fill="#FA5D32"/>
<g clip-path="url(#clip0_18_13)">
<path d="M21.0897 29.4562C19.3087 34.6772 17.5333 39.9095 16.3232 45.389C17.2384 45.712 18.1948 45.9033 19.1638 45.9571C19.5312 44.6145 19.8967 43.2709 20.2603 41.9263C20.2234 41.9007 20.1819 41.8824 20.1381 41.8723C20.8712 42.0517 21.5417 42.4267 22.0783 42.9574C22.649 43.5212 23.162 44.1407 23.6093 44.8067C23.5983 45.1838 23.7055 45.555 23.9159 45.8682C24.1262 46.1815 24.4292 46.4211 24.7825 46.5536C25.1345 46.672 25.5102 46.7023 25.8766 46.6419C26.2431 46.5815 26.5891 46.4322 26.8845 46.2071C26.822 46.5422 26.822 46.886 26.8845 47.2212C26.9077 47.3668 26.9517 47.5084 27.0152 47.6416C27.1593 47.9103 27.3824 48.1284 27.6543 48.2665C28.1161 48.5101 28.6474 48.5882 29.1598 48.4881C29.1491 48.802 29.2371 49.1114 29.4113 49.3728C29.5856 49.6342 29.8374 49.8344 30.1313 49.9453C30.7269 50.1335 31.3714 50.092 31.9379 49.8288C32.0168 50.0529 32.1416 50.258 32.3044 50.431C32.503 50.5982 32.7498 50.6977 33.0088 50.7151C33.6468 50.7691 34.2841 50.6037 34.8154 50.2464C35.1277 50.4229 35.4793 50.5185 35.838 50.5245C36.1967 50.5304 36.5512 50.4466 36.8692 50.2805C37.0374 50.2021 37.1904 50.0944 37.3208 49.9623C37.5711 49.6531 37.7111 49.2693 37.7185 48.8715C37.7191 48.472 37.6973 48.0727 37.6532 47.6756C37.9499 48.072 38.3064 48.4198 38.7099 48.7068C38.9074 48.8489 39.1328 48.9477 39.3712 48.9967C39.6096 49.0456 39.8556 49.0436 40.0932 48.9908C40.4864 48.8639 40.8178 48.5943 41.0221 48.2352C41.2374 47.8526 41.3582 47.4241 41.3743 46.9854C41.5302 47.2532 41.7009 47.5121 41.8856 47.7609C42.0515 47.9975 42.2526 48.2073 42.4821 48.383C42.7108 48.5557 42.9945 48.6395 43.2804 48.6187C43.5002 48.5728 43.7041 48.4699 43.8716 48.3203C44.0391 48.1708 44.1643 47.9798 44.2348 47.7665C44.3849 47.3335 44.4617 46.8784 44.462 46.4201C44.462 46.1559 44.4904 45.8918 44.4791 45.6219C44.6919 46.0791 44.9468 46.5156 45.2404 46.9257C45.5256 47.3321 45.9193 47.65 46.3766 47.8432C46.4902 47.8859 46.6067 47.9171 46.7231 47.9483C46.8137 47.9866 46.9115 48.0044 47.0097 48.0005C47.1079 47.9966 47.2041 47.971 47.2913 47.9256C47.3517 47.8713 47.4006 47.8053 47.4347 47.7316C47.4689 47.6579 47.4878 47.5779 47.4901 47.4967C47.4876 47.3267 47.5215 47.1582 47.5895 47.0024C49.3308 46.315 51.0465 45.5509 52.7026 44.73C52.8709 45.3672 53.0786 45.9933 53.3246 46.6047C54.5678 46.3009 55.7668 45.8388 56.8924 45.2299C57.8845 44.8529 58.8361 44.3771 59.733 43.8096C59.5881 38.6398 58.753 33.3989 56.4976 28.8C56.3664 28.5023 56.1932 28.2249 55.9834 27.9762C53.4997 28.8834 51.0911 29.9841 48.7797 31.2685C48.8543 31.3925 48.8972 31.533 48.9047 31.6775C46.5101 31.8536 44.1638 31.0071 41.8998 30.1663C41.1945 29.8661 40.4506 29.6663 39.6899 29.5726C38.9856 29.5669 38.2819 29.6153 37.585 29.7175C36.7741 29.2297 35.898 28.8596 34.983 28.6182C34.4421 28.4425 33.8785 28.3468 33.3099 28.3341C32.7897 28.3564 32.2752 28.452 31.7817 28.6182C29.0973 29.442 26.5863 30.9617 23.7997 31.2344L23.865 30.6464C23.8881 30.542 23.8751 30.4328 23.8281 30.3367C22.9304 29.9476 22.0101 29.5613 21.0897 29.4562Z" fill="white"/>
<path d="M58.4377 43.7131H58.4093L55.9522 42.7416C55.9328 42.733 55.9175 42.7173 55.9094 42.6977C55.9013 42.6781 55.901 42.6561 55.9087 42.6364C55.9164 42.6166 55.9314 42.6006 55.9506 42.5916C55.9698 42.5826 55.9917 42.5814 56.0118 42.5882L58.4689 43.5597C58.4789 43.5634 58.4881 43.5692 58.4958 43.5765C58.5036 43.5839 58.5097 43.5927 58.514 43.6026C58.5182 43.6124 58.5204 43.6229 58.5205 43.6336C58.5206 43.6443 58.5185 43.6549 58.5144 43.6648C58.508 43.6797 58.4973 43.6923 58.4836 43.7009C58.4699 43.7095 58.4539 43.7138 58.4377 43.7131Z" fill="#161616"/>
<path d="M59.2558 42.7302C59.2465 42.7332 59.2366 42.7332 59.2274 42.7302C57.8693 42.241 56.5414 41.6719 55.2506 41.0259C55.2408 41.021 55.2322 41.0143 55.2251 41.0061C55.2179 40.9979 55.2125 40.9884 55.2091 40.9781C55.2056 40.9678 55.2043 40.957 55.2051 40.9461C55.2058 40.9353 55.2087 40.9248 55.2136 40.9151C55.2227 40.8976 55.2376 40.8837 55.2557 40.876C55.2738 40.8682 55.2941 40.867 55.313 40.8725C56.603 41.5205 57.931 42.0896 59.2899 42.5768C59.3102 42.5845 59.3268 42.5997 59.3363 42.6192C59.3458 42.6387 59.3475 42.6612 59.341 42.6819C59.3338 42.698 59.3217 42.7114 59.3063 42.7201C59.291 42.7288 59.2733 42.7323 59.2558 42.7302Z" fill="#161616"/>
<path d="M59.4631 41.2105H59.4376C57.9321 40.6964 56.4322 40.1055 54.9779 39.4607C54.9682 39.4564 54.9594 39.4503 54.9521 39.4426C54.9448 39.4349 54.939 39.4259 54.9352 39.416C54.9314 39.4061 54.9295 39.3955 54.9298 39.3849C54.93 39.3743 54.9324 39.3639 54.9367 39.3542C54.941 39.3445 54.9471 39.3357 54.9548 39.3284C54.9625 39.3211 54.9715 39.3154 54.9814 39.3115C54.9913 39.3077 55.0018 39.3059 55.0124 39.3061C55.023 39.3064 55.0335 39.3087 55.0432 39.313C56.4947 39.955 57.9917 40.543 59.4915 41.0571C59.5017 41.0603 59.5111 41.0655 59.5191 41.0725C59.5271 41.0794 59.5336 41.088 59.5382 41.0976C59.5427 41.1072 59.5452 41.1177 59.5455 41.1283C59.5458 41.1389 59.5438 41.1495 59.5398 41.1594C59.5336 41.1746 59.523 41.1876 59.5093 41.1967C59.4956 41.2058 59.4796 41.2106 59.4631 41.2105Z" fill="#161616"/>
<path d="M59.4631 39.7504H59.4347C57.6849 39.063 56.33 38.4693 54.4609 37.6399C54.441 37.6311 54.4253 37.6149 54.4173 37.5947C54.4093 37.5745 54.4097 37.5519 54.4183 37.5319C54.4275 37.5125 54.4438 37.4973 54.4639 37.4894C54.4839 37.4815 54.5062 37.4815 54.5262 37.4893C56.3953 38.3188 57.7503 38.9096 59.4944 39.597C59.5045 39.6011 59.5137 39.6071 59.5215 39.6147C59.5292 39.6224 59.5354 39.6315 59.5396 39.6415C59.5439 39.6516 59.546 39.6623 59.5461 39.6732C59.5461 39.6841 59.544 39.6949 59.5398 39.705C59.533 39.7193 59.5221 39.7314 59.5084 39.7395C59.4948 39.7476 59.479 39.7514 59.4631 39.7504Z" fill="#161616"/>
<path d="M59.0285 38.1029C59.0183 38.1058 59.0075 38.1058 58.9973 38.1029L53.9808 35.9554C53.9609 35.9467 53.9453 35.9304 53.9373 35.9102C53.9293 35.89 53.9296 35.8675 53.9382 35.8475C53.9469 35.8276 53.9632 35.8119 53.9834 35.8039C54.0036 35.796 54.0262 35.7963 54.0461 35.8049L59.0598 37.9523C59.0699 37.9564 59.0791 37.9624 59.0868 37.9701C59.0946 37.9777 59.1008 37.9868 59.105 37.9968C59.1092 38.0069 59.1114 38.0177 59.1115 38.0285C59.1115 38.0394 59.1094 38.0502 59.1052 38.0603C59.0975 38.0737 59.0863 38.0847 59.0728 38.0922C59.0593 38.0997 59.044 38.1034 59.0285 38.1029Z" fill="#161616"/>
<path d="M58.8666 36.5264H58.8325L53.3843 33.9926C53.3649 33.9833 53.3499 33.9669 53.3424 33.9467C53.335 33.9265 53.3358 33.9043 53.3445 33.8846C53.3488 33.8748 53.355 33.8659 53.3629 33.8585C53.3707 33.8511 53.3799 33.8454 53.39 33.8417C53.4001 33.8379 53.4108 33.8363 53.4216 33.8369C53.4323 33.8374 53.4428 33.8401 53.4525 33.8449L58.9007 36.3787C58.9106 36.3829 58.9195 36.3892 58.9268 36.397C58.9342 36.4048 58.9399 36.414 58.9437 36.4241C58.9474 36.4342 58.949 36.445 58.9485 36.4557C58.9479 36.4664 58.9452 36.4769 58.9405 36.4866C58.9326 36.499 58.9217 36.5092 58.9088 36.5162C58.8958 36.5232 58.8813 36.5267 58.8666 36.5264Z" fill="#161616"/>
<path d="M58.3354 34.5436C58.3242 34.5462 58.3126 34.5462 58.3013 34.5436L52.8048 31.9502C52.7933 31.947 52.7827 31.9413 52.7736 31.9336C52.7646 31.9258 52.7573 31.9162 52.7523 31.9054C52.7473 31.8946 52.7447 31.8828 52.7447 31.8709C52.7447 31.859 52.7473 31.8472 52.7523 31.8364C52.7573 31.8255 52.7646 31.8159 52.7736 31.8082C52.7827 31.8005 52.7933 31.7948 52.8048 31.7916C52.8163 31.7884 52.8283 31.7877 52.8401 31.7895C52.8519 31.7914 52.8631 31.7958 52.873 31.8025L58.3695 34.3959C58.386 34.4041 58.3993 34.4175 58.4073 34.4341C58.4153 34.4506 58.4175 34.4694 58.4136 34.4874C58.4097 34.5054 58.3998 34.5215 58.3857 34.5332C58.3715 34.545 58.3538 34.5517 58.3354 34.5522V34.5436Z" fill="#161616"/>
<path d="M57.0998 31.9502H57.0685C55.705 31.3991 54.3103 30.8679 52.9298 30.3708C52.9195 30.3674 52.9101 30.3618 52.902 30.3546C52.894 30.3474 52.8875 30.3385 52.883 30.3287C52.8785 30.3189 52.876 30.3082 52.8758 30.2974C52.8755 30.2865 52.8775 30.2758 52.8815 30.2657C52.8892 30.2455 52.9045 30.2291 52.9242 30.22C52.9438 30.211 52.9663 30.2101 52.9866 30.2175C54.3671 30.7146 55.7619 31.2457 57.131 31.7968C57.1411 31.8009 57.1503 31.8069 57.1581 31.8145C57.1659 31.8222 57.172 31.8313 57.1763 31.8413C57.1805 31.8513 57.1827 31.8621 57.1827 31.873C57.1827 31.8839 57.1806 31.8947 57.1765 31.9048C57.1691 31.9187 57.1581 31.9303 57.1445 31.9383C57.131 31.9463 57.1155 31.9504 57.0998 31.9502Z" fill="#161616"/>
<path d="M56.9918 30.1265H56.9577L54.9949 29.2744C54.9749 29.2653 54.9594 29.2487 54.9517 29.2282C54.9439 29.2077 54.9447 29.185 54.9537 29.165C54.9627 29.145 54.9794 29.1295 54.9999 29.1218C55.0204 29.114 55.0431 29.1148 55.0631 29.1238L57.0231 29.976C57.043 29.9847 57.0586 30.001 57.0666 30.0212C57.0746 30.0414 57.0743 30.064 57.0657 30.0839C57.0587 30.0973 57.048 30.1084 57.0349 30.116C57.0219 30.1235 57.0069 30.1272 56.9918 30.1265Z" fill="#161616"/>
<path d="M15.3972 27.5217C17.3373 28.2035 19.2973 28.8256 21.1664 29.4107C20.8597 30.7685 20.0728 31.9445 19.5445 33.2228C19.2744 33.908 19.043 34.6079 18.8514 35.3191C17.8894 38.6426 16.9671 41.9746 16.0846 45.3151C14.4835 44.7431 12.8354 44.3125 11.1591 44.0283C12.8663 38.4551 14.4087 33.1006 15.3972 27.5217Z" fill="#FA5D32"/>
<g opacity="0.13">
<path d="M52.018 44.0255C51.7155 44.1203 51.4187 44.2323 51.1289 44.3607C51.0631 44.3579 50.9972 44.3636 50.9329 44.3777C50.7865 44.4103 50.6445 44.4599 50.5096 44.5254C50.3562 44.5794 50.2114 44.6305 50.0637 44.6987C50.004 44.7214 49.825 44.7925 49.7569 44.8095L49.7057 44.8294L49.5722 44.8692C49.5458 44.872 49.5191 44.872 49.4927 44.8692C49.4626 44.8646 49.4331 44.857 49.4046 44.8464C49.3421 44.7839 49.2853 44.7158 49.2285 44.6476C49.1717 44.5794 49.2285 44.6476 49.2655 44.6959C49.2181 44.6277 49.167 44.5624 49.1121 44.4999L49.0695 44.4487C49.0212 44.3749 48.9757 44.2982 48.9274 44.2215C48.7345 43.9144 48.5591 43.5967 48.4019 43.2699C48.061 42.5796 47.7486 41.8723 47.3878 41.1934C47.1983 40.7223 46.9801 40.2631 46.7345 39.8186C46.0146 38.6324 45.1321 37.5529 44.1126 36.6116C43.4029 35.8582 42.5912 35.208 41.701 34.68C41.127 34.2909 40.4725 34.0365 39.7864 33.9358C39.7398 33.9237 39.6912 33.9215 39.6438 33.9294C39.5963 33.9373 39.551 33.9551 39.5108 33.9817C39.4707 34.0082 39.4365 34.0428 39.4106 34.0834C39.3847 34.1239 39.3676 34.1695 39.3604 34.2171C39.3532 34.2647 39.3561 34.3132 39.3688 34.3596C39.3816 34.406 39.404 34.4493 39.4345 34.4865C39.465 34.5237 39.503 34.5541 39.546 34.5757C39.589 34.5973 39.6361 34.6096 39.6842 34.6118C40.2103 34.6814 40.7119 34.8762 41.1471 35.1799C41.1195 35.2471 41.1123 35.3209 41.1264 35.3922C41.1406 35.4634 41.1754 35.5289 41.2266 35.5805C41.7095 36.0207 42.2663 36.3588 42.769 36.7735C42.7463 36.7565 43.0275 37.0064 43.0815 37.0576C43.1355 37.1087 43.198 37.1769 43.2548 37.2394C43.2307 37.2624 43.2116 37.2902 43.1989 37.321C43.1862 37.3518 43.1801 37.385 43.1809 37.4183C43.2745 37.6623 43.4007 37.8926 43.5559 38.1029C44.107 38.9863 44.7603 39.8072 45.229 40.7475C45.9022 42.0896 46.3348 43.5395 46.5072 45.0311C46.6152 45.5736 46.6748 46.5621 46.5072 46.8462C46.4936 46.8636 46.4784 46.8798 46.4618 46.8945L46.4277 46.9144L46.3624 46.9399H46.3311C46.2867 46.9429 46.2421 46.9429 46.1976 46.9399H46.1465C45.959 46.8888 46.0613 46.9399 45.7801 46.7752C45.3455 46.5167 44.9705 47.1899 45.3966 47.4626C46.4675 48.2722 47.2174 47.9853 47.4304 46.8945C47.5148 46.232 47.4889 45.5601 47.3537 44.9061C47.3878 45.0055 47.4191 45.1049 47.4503 45.1901C47.51 45.5821 47.5639 45.9514 47.6122 46.2809C47.604 46.2898 47.5964 46.2993 47.5895 46.3093C47.5378 46.4044 47.5235 46.5152 47.5492 46.6203C47.575 46.7254 47.639 46.817 47.7287 46.8774C47.7672 46.9396 47.8249 46.9876 47.893 47.0143C47.9611 47.0409 48.036 47.0447 48.1065 47.0252C48.1574 47.0099 48.2039 46.9826 48.242 46.9455C48.2801 46.9084 48.3087 46.8626 48.3252 46.8121C49.5086 46.3504 50.6492 45.7858 51.7339 45.1248C51.8746 45.0162 52.027 44.9237 52.1884 44.8493C52.3093 44.8068 52.4156 44.7309 52.4952 44.6305C52.5492 44.5902 52.5962 44.5413 52.6344 44.4857C52.8361 44.0596 52.3446 43.838 52.018 44.0255Z" fill="#161616"/>
</g>
<g opacity="0.13">
<path d="M59.5057 42.7558C59.445 42.7575 59.3852 42.771 59.3296 42.7955C59.0456 42.8808 58.8126 43.0626 58.5456 43.1677C58.0712 43.4063 57.8866 43.4517 57.2532 43.7727C56.1652 44.3834 54.3416 44.9799 53.3672 45.4174C52.7253 45.6219 52.9838 46.619 53.6371 46.4514C54.6626 46.1048 55.6255 45.5992 56.6169 45.1589C57.1367 44.9061 58.1281 44.534 58.9518 44.1079C59.3353 43.8948 59.804 43.6477 59.8608 43.5227C59.9148 43.4539 59.9487 43.3716 59.9589 43.2847C59.969 43.1978 59.9549 43.1099 59.9182 43.0305C59.8814 42.9511 59.8235 42.8835 59.7507 42.835C59.6779 42.7865 59.5931 42.7591 59.5057 42.7558Z" fill="#161616"/>
</g>
<g opacity="0.13">
<path d="M23.2884 31.6974C22.8736 33.2739 22.1521 34.4386 21.601 36.177C21.2777 37.1926 21.0233 38.229 20.8398 39.2789C20.7233 39.7448 20.6324 40.2163 20.5387 40.6992C20.4312 41.1123 20.3937 41.5406 20.4279 41.9661C20.4502 42.0584 20.4917 42.145 20.5497 42.2202C20.6077 42.2954 20.6809 42.3575 20.7645 42.4025C20.8481 42.4475 20.9403 42.4744 21.035 42.4815C21.1297 42.4885 21.2248 42.4755 21.3141 42.4433C21.5386 42.6904 21.7772 42.9234 22.0158 43.1563V43.1222C21.9987 42.6592 22.0016 42.1933 22.0158 41.7303C21.9361 41.4679 21.8866 41.1972 21.8681 40.9236C21.959 40.4095 22.0754 39.901 22.1322 39.3812C22.3921 37.7172 22.7951 36.0787 23.3366 34.484C23.49 34.0068 23.6207 33.5182 23.8082 33.0637C23.9502 32.649 24.1803 32.2257 24.1803 31.7826C24.1663 31.6798 24.118 31.5847 24.0431 31.5128C23.9683 31.4409 23.8714 31.3964 23.7681 31.3866C23.6648 31.3767 23.5612 31.402 23.4741 31.4585C23.387 31.5149 23.3216 31.5991 23.2884 31.6974Z" fill="#161616"/>
</g>
<g opacity="0.13">
<path d="M23.757 44.4857C23.7465 44.5355 23.7188 44.5801 23.6789 44.6117C23.639 44.6434 23.5892 44.6601 23.5383 44.659C23.5766 44.6836 23.6197 44.6999 23.6647 44.7067C23.7098 44.7136 23.7557 44.7108 23.7996 44.6987C23.8719 44.6755 23.9344 44.6287 23.9771 44.566C24.0198 44.5032 24.0403 44.4279 24.0354 44.3522L23.757 44.4857Z" fill="#161616"/>
</g>
<g opacity="0.13">
<path d="M20.4279 41.9547L20.4023 41.7672C20.402 41.8306 20.4107 41.8937 20.4279 41.9547Z" fill="#161616"/>
</g>
<g opacity="0.13">
<path d="M26.5096 45.7668C26.3334 45.8918 26.0977 45.852 25.6375 45.8463C25.2903 45.8442 24.9444 45.8033 24.6064 45.7242C24.382 45.6702 24.1718 45.4913 23.9388 45.5197C23.8406 45.5352 23.7506 45.5837 23.6836 45.6572C23.6166 45.7307 23.5767 45.8249 23.5704 45.9241C23.5641 46.0234 23.5918 46.1218 23.649 46.2032C23.7062 46.2846 23.7894 46.3441 23.8849 46.3718C24.1893 46.5005 24.5038 46.604 24.8251 46.6815C25.0915 46.7691 25.3755 46.7895 25.6517 46.7411C25.9948 46.6547 26.3225 46.5158 26.6232 46.3292C26.7482 46.2469 26.9072 46.1787 26.9641 46.0196C26.9692 45.9647 26.9583 45.9095 26.9326 45.8607C26.9069 45.8119 26.8675 45.7717 26.8193 45.7449C26.7711 45.7181 26.7162 45.7059 26.6612 45.7098C26.6062 45.7137 26.5535 45.7335 26.5096 45.7668Z" fill="#161616"/>
</g>
<g opacity="0.13">
<path d="M31.1681 46.3917C31.0147 46.4457 30.9835 46.5309 30.7449 46.6758C30.3354 46.9128 29.8823 47.0645 29.4126 47.1218C29.0154 47.2403 28.6029 47.2996 28.1883 47.2979C27.9796 47.3054 27.7706 47.2959 27.5634 47.2695C27.431 47.2246 27.2909 47.2072 27.1515 47.2183C26.6033 47.2751 26.5522 48.1273 27.0834 48.2722C28.4355 48.6841 29.5518 48.2722 30.5091 47.6615C30.806 47.4876 31.0823 47.2808 31.3329 47.0451C31.4692 46.886 31.5033 46.9144 31.5317 46.6985C31.5325 46.653 31.5231 46.6078 31.5043 46.5663C31.4855 46.5249 31.4576 46.4881 31.4228 46.4587C31.388 46.4293 31.3471 46.4081 31.303 46.3965C31.259 46.3849 31.2129 46.3833 31.1681 46.3917Z" fill="#161616"/>
</g>
<g opacity="0.13">
<path d="M36.8493 49.3175C36.5652 49.3601 36.6362 49.397 36.4857 49.4453C36.3035 49.5306 36.1132 49.5972 35.9176 49.6442C35.7994 49.6701 35.6799 49.69 35.5597 49.7038C35.5892 49.6634 35.61 49.6173 35.6208 49.5684C35.6316 49.5195 35.632 49.4689 35.6221 49.4198C35.6131 49.3268 35.5702 49.2404 35.5016 49.177C35.433 49.1136 35.3434 49.0777 35.25 49.0761C35.0285 49.0761 34.8609 49.2834 34.6564 49.3601C34.3646 49.5079 34.0616 49.6323 33.7502 49.7322C33.4225 49.8333 33.0819 49.8859 32.739 49.8885C32.5468 49.845 32.3571 49.7909 32.1708 49.7265C32.5269 49.5695 32.8674 49.3793 33.1878 49.1584C33.5569 48.9171 33.8947 48.6308 34.1933 48.3063C34.231 48.2716 34.2602 48.2287 34.2788 48.181C34.2973 48.1333 34.3047 48.0819 34.3003 48.0309C34.2959 47.9799 34.2799 47.9306 34.2535 47.8867C34.227 47.8429 34.1909 47.8056 34.1479 47.7779C34.0892 47.743 34.0205 47.729 33.9529 47.7383C33.8853 47.7476 33.8228 47.7796 33.7758 47.829C33.7957 47.829 33.8468 47.7722 33.8155 47.7921C33.665 47.8915 33.5116 47.991 33.3582 48.0762C32.5024 48.616 31.5472 48.9792 30.5489 49.1442C30.3706 49.174 30.1894 49.1826 30.0092 49.1698H29.958C29.8256 49.1319 29.6894 49.1091 29.5518 49.1016C29.4809 49.1152 29.4164 49.1518 29.3685 49.2059C29.3206 49.26 29.292 49.3284 29.2871 49.4005C29.2823 49.4725 29.3014 49.5442 29.3416 49.6042C29.3818 49.6643 29.4407 49.7093 29.5092 49.7322C29.7905 49.848 30.0855 49.9273 30.387 49.968C30.7078 49.9889 31.03 49.9727 31.3471 49.9197C31.5176 49.9051 31.6861 49.8727 31.8499 49.8231C31.8097 49.8684 31.7797 49.9218 31.7619 49.9797C31.7441 50.0376 31.7389 50.0986 31.7467 50.1586C31.7545 50.2187 31.7751 50.2763 31.8071 50.3277C31.8391 50.3791 31.8818 50.4231 31.9322 50.4566C32.3269 50.6539 32.7635 50.7529 33.2047 50.745C33.6459 50.7371 34.0787 50.6225 34.466 50.4111C34.6153 50.3481 34.7596 50.274 34.8978 50.1896C34.894 50.3205 34.9419 50.4476 35.0313 50.5433C35.1206 50.6391 35.2442 50.6957 35.375 50.7009C35.8892 50.6327 36.4431 50.6014 36.8777 50.2748C37.0055 50.1697 37.1759 50.0816 37.2328 49.914C37.2544 49.8495 37.2613 49.7809 37.2529 49.7134C37.2444 49.6458 37.221 49.581 37.1842 49.5237C37.1473 49.4665 37.0981 49.4182 37.0402 49.3825C36.9822 49.3468 36.917 49.3246 36.8493 49.3175Z" fill="#161616"/>
</g>
<g opacity="0.13">
<path d="M40.9908 47.3092C40.6727 47.4768 40.7494 47.5109 40.5449 47.6444C40.3465 47.8152 40.1027 47.9247 39.8432 47.9597C39.6959 48.0034 39.5423 48.0226 39.3888 48.0165H39.278C39.2357 48.0098 39.194 48.0003 39.153 47.9881C38.8888 47.9455 38.6133 47.741 38.3548 47.9029C38.2833 47.9542 38.2271 48.0239 38.1919 48.1045C38.1568 48.1852 38.1441 48.2738 38.1551 48.3611C38.1662 48.4484 38.2006 48.5311 38.2547 48.6004C38.3089 48.6697 38.3807 48.7232 38.4627 48.7551C38.8029 48.8803 39.1626 48.9438 39.5251 48.9425C39.964 48.9038 40.3846 48.7489 40.7437 48.4937C40.9165 48.3622 41.0824 48.2218 41.2408 48.0733C41.306 48.0305 41.3602 47.9729 41.3992 47.9054C41.4382 47.8378 41.4608 47.762 41.4652 47.6842C41.4656 47.6259 41.4527 47.5683 41.4274 47.5157C41.4022 47.4632 41.3653 47.4171 41.3195 47.3809C41.2738 47.3448 41.2204 47.3195 41.1635 47.3071C41.1065 47.2947 41.0475 47.2954 40.9908 47.3092Z" fill="#161616"/>
</g>
<g opacity="0.13">
<path d="M44.5586 45.9855C44.5583 45.8883 44.5266 45.7937 44.4683 45.7159C44.4099 45.6382 44.328 45.5813 44.2348 45.5538H44.2064C44.2231 45.1797 44.1955 44.805 44.124 44.4374C43.9581 43.8856 43.7333 43.3533 43.4536 42.8495C43.2358 42.2986 42.935 41.7842 42.5617 41.3241C42.5221 41.2934 42.4747 41.2746 42.4249 41.2698C42.3751 41.265 42.3249 41.2745 42.2803 41.2971C42.2356 41.3198 42.1983 41.3546 42.1727 41.3976C42.1471 41.4406 42.1342 41.49 42.1356 41.54C42.1356 41.7303 42.3145 41.8638 42.3969 42.0257C42.8068 42.6624 43.0957 43.3692 43.2491 44.1107C43.502 44.831 43.5837 45.6003 43.4877 46.3576V46.3832C43.4877 46.4258 43.4877 46.4684 43.465 46.5082C43.4598 46.539 43.4522 46.5694 43.4423 46.5991C43.3968 46.6758 43.3485 46.7496 43.3002 46.8206C43.2519 46.8917 43.1128 47.0536 43.0417 47.1246L42.9963 47.153C42.7833 47.1638 42.5708 47.1229 42.377 47.0337C42.2719 46.9911 42.2521 46.9797 42.377 47.0337C42.1945 46.938 42.0045 46.8572 41.8089 46.7922C41.3686 46.7099 41.1528 47.3774 41.5419 47.6046C41.6783 47.6785 41.826 47.7495 41.9623 47.8092C41.974 47.8858 42.0021 47.959 42.0448 48.0237C42.0875 48.0885 42.1436 48.1432 42.2094 48.1841L42.3117 48.2324C42.3158 48.3311 42.3509 48.426 42.4121 48.5036C42.4734 48.5811 42.5575 48.6373 42.6526 48.6642C42.834 48.7314 43.0293 48.7519 43.2207 48.7238C43.2963 48.7041 43.3696 48.6765 43.4394 48.6415C43.6484 48.5701 43.8215 48.4204 43.9223 48.2239C43.9673 48.1279 43.9754 48.0187 43.945 47.9171C44.0165 47.8385 44.0603 47.7388 44.07 47.6331C44.2638 47.3628 44.4019 47.0567 44.4762 46.7326C44.5184 46.5077 44.5422 46.2797 44.5472 46.0509V46.0253L44.5586 45.9855Z" fill="#161616"/>
</g>
<path d="M19.0218 46.2298H18.9763C17.5788 45.9628 16.1358 45.6873 14.7155 45.2782C14.1746 45.098 13.6247 44.9463 13.0679 44.8237C12.4224 44.681 11.7859 44.4999 11.1619 44.2812C11.1005 44.2582 11.0505 44.2119 11.0229 44.1524C10.9953 44.0928 10.9921 44.0248 11.0142 43.963C11.0378 43.9028 11.0838 43.854 11.1426 43.827C11.2014 43.8 11.2684 43.7968 11.3295 43.8182C11.9331 44.0287 12.5487 44.2032 13.173 44.3408C13.7412 44.4662 14.3025 44.6207 14.8547 44.8038C16.1699 45.1788 17.522 45.4458 18.8315 45.6958C19.3996 43.2756 20.1779 40.9123 20.9278 38.6227C21.3738 37.2593 21.8368 35.8503 22.2572 34.4272C22.2572 34.4272 22.2572 34.4272 22.2572 34.4073C22.3992 34.038 22.5413 33.6773 22.6975 33.3251C23.1243 32.4012 23.4454 31.4321 23.6548 30.4362L23.6321 30.4163C23.6055 30.4164 23.5793 30.4106 23.5554 30.3993C22.3181 29.9295 21.056 29.5284 19.7745 29.1977C18.2454 28.8095 16.7464 28.311 15.2893 27.7064C15.233 27.6778 15.1898 27.6287 15.1686 27.5692C15.1474 27.5097 15.1497 27.4444 15.1752 27.3866C15.2006 27.3288 15.2472 27.2829 15.3054 27.2584C15.3636 27.2339 15.429 27.2326 15.4881 27.2547C16.9271 27.8533 18.4082 28.3451 19.9194 28.7262C21.2049 29.0612 22.4717 29.4642 23.7144 29.9334C23.8365 29.9538 23.9477 30.0159 24.029 30.1091C24.1104 30.2024 24.1568 30.321 24.1604 30.4447C24.1604 30.4589 24.1604 30.4731 24.1604 30.4873C23.9451 31.5324 23.6105 32.5494 23.1634 33.5182C23.0185 33.8619 22.8793 34.217 22.7344 34.5778C22.3112 35.998 21.8482 37.4183 21.4022 38.779C20.5955 41.2389 19.8342 43.5597 19.2632 46.0395C19.2509 46.0941 19.2202 46.1428 19.1762 46.1774C19.1323 46.212 19.0778 46.2305 19.0218 46.2298Z" fill="#161616"/>
<path d="M16.1557 45.4714C16.1368 45.4742 16.1177 45.4742 16.0988 45.4714C16.0378 45.4565 15.9849 45.4186 15.9511 45.3657C15.9172 45.3128 15.905 45.2489 15.917 45.1873C17.2042 39.7701 18.8836 34.4536 20.942 29.2801C20.9666 29.2202 21.0139 29.1726 21.0735 29.1475C21.1331 29.1225 21.2003 29.1222 21.2602 29.1466C21.3207 29.1712 21.3691 29.2187 21.3946 29.2789C21.4202 29.339 21.4209 29.4069 21.3965 29.4675C19.3483 34.6113 17.6774 39.8974 16.3971 45.2839C16.3842 45.3379 16.3532 45.386 16.3093 45.4201C16.2654 45.4541 16.2112 45.4722 16.1557 45.4714Z" fill="#161616"/>
<path d="M53.2849 46.9229C53.2461 46.9233 53.2079 46.9135 53.1741 46.8945C53.1437 46.8798 53.1168 46.8588 53.0952 46.8328C53.0737 46.8068 53.0579 46.7765 53.0491 46.7439C52.1486 43.4886 51.1942 40.239 50.1858 36.8019C49.666 35.0237 49.1263 33.1887 48.5894 31.3281C48.5737 31.2749 48.5763 31.2179 48.597 31.1664C48.6176 31.1149 48.6549 31.0718 48.703 31.0441C50.9989 29.7405 53.4001 28.6317 55.8812 27.7291C55.9114 27.7181 55.9435 27.7132 55.9756 27.7146C56.0077 27.716 56.0393 27.7237 56.0684 27.7372C56.0975 27.7508 56.1237 27.77 56.1455 27.7937C56.1672 27.8174 56.184 27.8452 56.195 27.8754C56.206 27.9056 56.211 27.9377 56.2096 27.9698C56.2082 28.002 56.2005 28.0335 56.1869 28.0626C56.1733 28.0918 56.1541 28.118 56.1304 28.1397C56.1067 28.1614 56.079 28.1783 56.0487 28.1893C53.6542 29.0602 51.3351 30.1262 49.1149 31.3764C49.6347 33.1717 50.1545 34.9442 50.6573 36.6599C51.6402 40.0118 52.569 43.1932 53.4496 46.3519C55.5488 45.5651 57.631 44.6675 59.6478 43.679C59.7061 43.6503 59.7735 43.6461 59.835 43.6671C59.8966 43.6882 59.9472 43.7328 59.9758 43.7912C60.0045 43.8496 60.0087 43.9169 59.9877 43.9785C59.9667 44.04 59.922 44.0906 59.8636 44.1193C57.7531 45.1532 55.5687 46.0906 53.3701 46.9087C53.3426 46.9178 53.3138 46.9225 53.2849 46.9229Z" fill="#161616"/>
<path d="M56.0118 45.6787C55.9571 45.6791 55.9039 45.6611 55.8606 45.6276C55.8173 45.5942 55.7866 45.5471 55.7732 45.4941C54.4495 40.2731 52.9326 35.0322 51.2936 29.9163C51.2737 29.8546 51.2791 29.7874 51.3086 29.7296C51.3382 29.6718 51.3895 29.6281 51.4513 29.6081C51.5131 29.5882 51.5802 29.5936 51.638 29.6231C51.6958 29.6527 51.7395 29.704 51.7595 29.7658C53.4155 34.893 54.9239 40.1424 56.2476 45.3719C56.264 45.4352 56.2547 45.5024 56.2217 45.5589C56.1887 45.6153 56.1347 45.6564 56.0715 45.673L56.0118 45.6787Z" fill="#161616"/>
<path d="M30.9409 38.6C30.6531 38.6096 30.3682 38.5396 30.1177 38.3978C29.8671 38.256 29.6605 38.0478 29.5206 37.7961C29.0348 36.8047 29.9523 35.6912 30.2534 35.3248C31.4948 33.8108 32.7816 32.2456 34.3837 31.0639C36.1903 29.7289 38.1673 29.1238 39.9483 29.3596C40.8471 29.5164 41.7243 29.7786 42.5617 30.1407C42.8457 30.2458 43.1099 30.3538 43.3826 30.4532C45.1151 31.0764 46.9388 31.4085 48.7797 31.436C48.8403 31.4426 48.8964 31.4713 48.9371 31.5166C48.9779 31.562 49.0004 31.6208 49.0004 31.6818C49.0004 31.7427 48.9779 31.8015 48.9371 31.8469C48.8964 31.8922 48.8403 31.9209 48.7797 31.9275C46.8823 31.9064 45.0017 31.5695 43.215 30.9304C42.931 30.831 42.6469 30.7231 42.3799 30.6151C41.5797 30.268 40.7417 30.0154 39.883 29.8624C38.227 29.6436 36.3777 30.2146 34.6706 31.473C33.1196 32.6092 31.8527 34.1573 30.6284 35.6458C29.9438 36.4781 29.7251 37.1144 29.9609 37.5916C30.0675 37.7718 30.224 37.9173 30.4115 38.0106C30.599 38.1038 30.8095 38.1408 31.0176 38.1171C31.4905 38.0527 31.9445 37.8891 32.3498 37.637L33.2872 37.1456C35.1904 36.1514 36.9799 35.214 38.6843 33.9528C38.7366 33.9279 38.796 33.9221 38.8521 33.9365C38.9082 33.9509 38.9575 33.9845 38.9913 34.0315C39.0251 34.0786 39.0414 34.136 39.0372 34.1938C39.033 34.2515 39.0086 34.306 38.9683 34.3476C37.2498 35.6231 35.429 36.5718 33.5144 37.5745L32.5884 38.0631C32.1198 38.3507 31.5946 38.5338 31.0488 38.6H30.9409Z" fill="#161616"/>
<path d="M47.6918 47.2666C47.6434 47.2662 47.5962 47.2518 47.5558 47.225C47.5155 47.1983 47.4838 47.1605 47.4645 47.1161C47.4397 47.0565 47.4391 46.9895 47.463 46.9295C47.4869 46.8695 47.5333 46.8213 47.5923 46.7951C49.2228 46.0878 50.8675 45.3549 52.481 44.6164C52.5401 44.5892 52.6076 44.5867 52.6686 44.6094C52.7296 44.632 52.7791 44.6779 52.8062 44.7371C52.8333 44.7962 52.8359 44.8637 52.8132 44.9247C52.7906 44.9857 52.7446 45.0352 52.6855 45.0623C51.0692 45.8037 49.4217 46.5394 47.7883 47.2439C47.7581 47.2581 47.7252 47.2659 47.6918 47.2666Z" fill="#161616"/>
<path d="M47.0583 48.221C47.01 48.221 46.9646 48.221 46.9248 48.221C46.1664 48.1358 45.4193 47.6075 44.8796 46.7752C44.5544 46.2346 44.2823 45.6638 44.0672 45.0708L43.8456 44.5311C43.2378 43.0993 42.4033 41.7747 41.3743 40.6083C41.3363 40.5586 41.3185 40.4964 41.3245 40.4342C41.3306 40.372 41.3599 40.3143 41.4068 40.2729C41.4536 40.2315 41.5144 40.2094 41.5769 40.211C41.6394 40.2126 41.699 40.2378 41.7436 40.2816C42.8078 41.4879 43.671 42.8575 44.3001 44.338C44.3768 44.5198 44.4507 44.7044 44.5245 44.8862C44.7296 45.4471 44.9874 45.9873 45.2943 46.4996C45.7545 47.2069 46.3709 47.6529 46.9987 47.7239C47.0565 47.7374 47.1171 47.7325 47.1719 47.7097C47.2032 47.6898 47.2515 47.616 47.243 47.3433C47.1544 44.5696 46.3108 41.8727 44.8029 39.5431C43.3181 37.2736 41.2147 35.4767 38.7411 34.3647C38.7116 34.3516 38.685 34.3329 38.6628 34.3096C38.6406 34.2862 38.6231 34.2587 38.6115 34.2287C38.5881 34.1679 38.5897 34.1004 38.6161 34.0409C38.6425 33.9813 38.6914 33.9347 38.7521 33.9113C38.8129 33.8879 38.8804 33.8895 38.9399 33.9159C41.4967 35.0691 43.6708 36.9288 45.2063 39.276C46.759 41.6826 47.627 44.4665 47.7173 47.3291C47.7392 47.474 47.7246 47.622 47.6751 47.7598C47.6255 47.8977 47.5424 48.021 47.4333 48.1188C47.3217 48.1904 47.1908 48.2261 47.0583 48.221Z" fill="#161616"/>
<path d="M35.7471 50.8145C35.3199 50.823 34.9031 50.6824 34.5683 50.4168C34.5351 50.3735 34.5172 50.3205 34.5174 50.2659C34.5175 50.2114 34.5357 50.1584 34.5691 50.1153C34.6025 50.0722 34.6493 50.0413 34.702 50.0275C34.7548 50.0137 34.8106 50.0178 34.8609 50.039C35.0116 50.155 35.1839 50.2399 35.3678 50.2886C35.5516 50.3374 35.7434 50.3491 35.9318 50.3231H35.9659C36.198 50.31 36.4252 50.2511 36.6343 50.1497C36.8435 50.0483 37.0305 49.9064 37.1845 49.7322C37.2729 49.636 37.3403 49.5224 37.3824 49.3987C37.4244 49.2749 37.4402 49.1438 37.4288 49.0136C37.4274 49.0023 37.4274 48.9908 37.4288 48.9795C37.4235 48.5036 37.3818 48.0287 37.3038 47.5592C37.2965 47.5067 37.3062 47.4533 37.3316 47.4068C37.3569 47.3604 37.3966 47.3232 37.4446 47.301C37.4927 47.2787 37.5466 47.2724 37.5985 47.2831C37.6503 47.2938 37.6974 47.3209 37.7327 47.3604C38.0562 47.7742 38.4391 48.1379 38.8689 48.4398C39.0574 48.5732 39.274 48.6615 39.5021 48.6979C39.7301 48.7344 39.9634 48.718 40.1841 48.65C40.7125 48.4483 41.255 47.4797 41.1329 46.9456C41.1226 46.9131 41.1191 46.8788 41.1227 46.8449C41.1263 46.8109 41.1369 46.7781 41.1538 46.7485C41.1707 46.7189 41.1936 46.693 41.221 46.6727C41.2483 46.6523 41.2796 46.6378 41.3129 46.6302C41.3461 46.6225 41.3806 46.6218 41.4141 46.6281C41.4477 46.6344 41.4795 46.6476 41.5077 46.6668C41.5359 46.686 41.5598 46.7109 41.5779 46.7398C41.596 46.7687 41.6079 46.8011 41.6129 46.8349C41.7862 47.6047 41.1187 48.8233 40.3574 49.1073C40.066 49.2041 39.756 49.2314 39.4522 49.187C39.1483 49.1426 38.8591 49.0278 38.6076 48.8517C38.3472 48.685 38.1078 48.4876 37.8946 48.2637C37.9145 48.4881 37.9287 48.7238 37.9287 48.9568C37.947 49.1521 37.9247 49.3491 37.8631 49.5354C37.8015 49.7217 37.702 49.8931 37.5708 50.039C37.3744 50.2679 37.1338 50.4545 36.8633 50.5878C36.5928 50.7211 36.2982 50.7982 35.9971 50.8145H35.9659H35.7471Z" fill="#161616"/>
<path d="M43.2008 48.88C43.0117 48.8744 42.8255 48.8319 42.6526 48.7551C41.8004 48.4028 41.3346 47.4228 40.8943 46.4826C40.5903 45.8264 40.275 45.1475 39.8461 44.747C39.7986 44.7026 39.7708 44.6411 39.7686 44.5761C39.7665 44.5111 39.7903 44.4479 39.8347 44.4005C39.8792 44.353 39.9407 44.3251 40.0056 44.323C40.0706 44.3209 40.1338 44.3446 40.1813 44.3891C40.6812 44.8549 41.0164 45.5765 41.3402 46.2752C41.7578 47.1785 42.1526 48.0307 42.8372 48.3063C43.1383 48.4312 43.4792 48.5704 43.9735 47.7154C44.097 47.4573 44.162 47.175 44.1638 46.8888C44.1708 46.1277 44.0616 45.37 43.8399 44.6419C43.8115 44.5283 43.7831 44.4175 43.7576 44.3039C43.7421 44.2406 43.7524 44.1738 43.7863 44.1181C43.8201 44.0624 43.8747 44.0225 43.9379 44.007C44.0012 43.9916 44.0681 44.0019 44.1237 44.0357C44.1794 44.0696 44.2193 44.1241 44.2348 44.1874C44.2603 44.301 44.2888 44.4118 44.3172 44.5226C44.5531 45.2995 44.6671 46.1082 44.6552 46.92C44.6497 47.2802 44.5633 47.6346 44.4024 47.9569C43.9848 48.667 43.5786 48.88 43.2008 48.88Z" fill="#161616"/>
<path d="M28.4752 48.7352H28.4156C27.6912 48.7181 26.8391 48.2665 26.609 47.437C26.5412 47.1746 26.5267 46.9013 26.5664 46.6332C26.0987 46.9261 25.5387 47.0344 24.9955 46.9371C24.5706 46.8521 24.1811 46.6414 23.8772 46.3325C23.5733 46.0236 23.3692 45.6306 23.2912 45.2043C23.2646 45.0929 23.2652 44.9766 23.2929 44.8654C23.3205 44.7542 23.3745 44.6512 23.4503 44.5652C23.4955 44.5185 23.5574 44.4917 23.6224 44.4906C23.6874 44.4895 23.7501 44.5143 23.7968 44.5595C23.8435 44.6047 23.8704 44.6666 23.8714 44.7316C23.8725 44.7966 23.8477 44.8594 23.8025 44.9061C23.769 44.9771 23.762 45.0576 23.7826 45.1333C23.8421 45.4587 23.9975 45.7588 24.2288 45.9951C24.4601 46.2315 24.7568 46.3934 25.0808 46.4599C25.3958 46.5162 25.7204 46.4836 26.0179 46.3657C26.3155 46.2478 26.5743 46.0492 26.7652 45.7923C26.7966 45.7488 26.8413 45.7167 26.8925 45.7008C26.9438 45.6849 26.9988 45.6861 27.0493 45.7043C27.113 45.6706 27.1784 45.6402 27.2453 45.6134C28.1515 45.2415 29.1096 45.0116 30.0859 44.9317C31.0715 44.8521 31.4777 45.2157 31.6482 45.5282C31.7692 45.7726 31.8109 46.0486 31.7675 46.3179C31.7211 46.7122 31.5624 47.0849 31.3101 47.3916C31.0664 47.6635 30.7782 47.8921 30.458 48.0677C29.8685 48.4631 29.1839 48.6936 28.4752 48.7352ZM27.1459 46.2326C27.0324 46.5791 27.0109 46.9491 27.0834 47.3064C27.1831 47.5822 27.3658 47.8205 27.6064 47.9883C27.847 48.1562 28.1336 48.2454 28.427 48.2438C29.086 48.2608 29.7251 47.9285 30.208 47.6387C30.4781 47.4903 30.7219 47.2984 30.9295 47.0706C31.1202 46.8348 31.2412 46.5505 31.2789 46.2497C31.3055 46.0802 31.2828 45.9067 31.2136 45.7497C31.0318 45.4146 30.5205 45.3805 30.1228 45.4146C29.1989 45.4881 28.2922 45.7057 27.4356 46.0594C27.3282 46.0966 27.2295 46.1556 27.1459 46.2326Z" fill="#161616"/>
<path d="M30.6966 50.343C30.3508 50.348 30.0104 50.2565 29.7137 50.0788C29.438 49.8973 29.2165 49.6447 29.0725 49.3477C28.9285 49.0507 28.8674 48.7203 28.8956 48.3915C28.9009 48.3267 28.9317 48.2666 28.9813 48.2246C29.0308 48.1825 29.095 48.1618 29.1598 48.1671C29.2246 48.1723 29.2847 48.2031 29.3267 48.2527C29.3688 48.3022 29.3895 48.3665 29.3842 48.4312C29.3654 48.6708 29.4108 48.911 29.5156 49.1272C29.6205 49.3433 29.781 49.5277 29.9807 49.6612C30.1974 49.7786 30.4379 49.8449 30.684 49.8552C30.9301 49.8656 31.1754 49.8196 31.401 49.7209C31.8974 49.5063 32.3551 49.2117 32.756 48.8488C33.3724 48.3403 33.9519 47.7722 34.0059 47.0536C34.0145 47.0066 34.0145 46.9585 34.0059 46.9115C33.9757 46.8644 33.9335 46.8262 33.8837 46.8008C33.5097 46.5956 33.0704 46.5447 32.6594 46.6587C32.2538 46.7714 31.8657 46.9396 31.5061 47.1587L31.438 47.1956C31.3802 47.2261 31.3128 47.2328 31.2501 47.2142C31.1875 47.1956 31.1346 47.1533 31.1028 47.0962C31.0693 47.0429 31.0574 46.9788 31.0696 46.917C31.0817 46.8553 31.1169 46.8005 31.1681 46.7638L31.2363 46.7269C31.6344 46.4875 32.0636 46.304 32.5117 46.1815C32.7783 46.1071 33.057 46.0867 33.3316 46.1213C33.6062 46.1559 33.8712 46.245 34.111 46.3832C34.2476 46.4621 34.3567 46.5811 34.4234 46.7241C34.4675 46.8408 34.4831 46.9665 34.4689 47.0905C34.4035 47.991 33.7445 48.65 33.0486 49.2266C32.6065 49.6249 32.1017 49.9474 31.5544 50.181C31.2805 50.286 30.9899 50.3409 30.6966 50.343Z" fill="#161616"/>
<path d="M33.3383 51.019C33.0079 51.0192 32.6824 50.9392 32.3896 50.7861C32.1984 50.699 32.0358 50.5598 31.9202 50.3845C31.8046 50.2091 31.7409 50.0047 31.7362 49.7947C31.7413 49.7299 31.7715 49.6697 31.8203 49.6267C31.869 49.5838 31.9326 49.5615 31.9976 49.5646C32.0299 49.5665 32.0616 49.5747 32.0907 49.5888C32.1199 49.603 32.1459 49.6228 32.1673 49.6471C32.1888 49.6715 32.2051 49.6998 32.2155 49.7305C32.2258 49.7612 32.23 49.7937 32.2277 49.826C32.2135 50.0504 32.435 50.2492 32.631 50.3515C32.9344 50.5076 33.2802 50.5614 33.6167 50.5049C34.1427 50.366 34.6204 50.0849 34.9972 49.6925C35.4318 49.2976 35.6165 48.971 35.5653 48.6642C35.5313 48.4991 35.4439 48.3499 35.3166 48.2395C35.1892 48.1291 35.0291 48.0637 34.8609 48.0535C34.4764 48.0636 34.1101 48.2189 33.8354 48.4881C33.8104 48.5084 33.7817 48.5236 33.7508 48.5328C33.7199 48.542 33.6876 48.5451 33.6555 48.5418C33.5908 48.5351 33.5314 48.503 33.4903 48.4526C33.4492 48.4021 33.4299 48.3374 33.4366 48.2726C33.4432 48.2079 33.4753 48.1485 33.5258 48.1074C33.8945 47.7594 34.3822 47.5653 34.8893 47.5649C35.1748 47.5784 35.4472 47.6891 35.6611 47.8788C35.875 48.0684 36.0176 48.3255 36.0653 48.6074C36.1391 49.238 35.679 49.7436 35.3239 50.0561C34.88 50.511 34.3185 50.8335 33.7019 50.9878C33.5819 51.0087 33.4602 51.0191 33.3383 51.019Z" fill="#161616"/>
<path d="M26.9953 46.0224C26.9369 46.0224 26.8805 46.0015 26.8362 45.9635C26.7919 45.9254 26.7627 45.8728 26.7539 45.8151C26.6743 45.3322 26.1687 45.0424 25.8761 44.9118C25.0239 44.534 24.2769 44.5453 23.6661 44.9487C23.6124 44.9839 23.547 44.9968 23.4839 44.9846C23.4208 44.9724 23.3649 44.9361 23.3281 44.8834C22.5352 43.6848 21.4276 42.7276 20.1268 42.1166C20.0975 42.1032 20.0711 42.0842 20.0492 42.0605C20.0273 42.0369 20.0103 42.0092 19.9991 41.979C19.9878 41.9488 19.9827 41.9167 19.9839 41.8845C19.9851 41.8523 19.9926 41.8207 20.0061 41.7914C20.0195 41.7621 20.0386 41.7358 20.0622 41.7139C20.0858 41.6919 20.1135 41.6749 20.1437 41.6637C20.1739 41.6525 20.206 41.6473 20.2382 41.6485C20.2704 41.6497 20.302 41.6572 20.3313 41.6707C21.6433 42.2822 22.771 43.2286 23.6008 44.4147C24.3138 44.0369 25.1461 44.0511 26.075 44.463C26.7368 44.747 27.1515 45.2072 27.2368 45.7355C27.2475 45.7999 27.2323 45.8659 27.1945 45.9192C27.1567 45.9724 27.0994 46.0085 27.0351 46.0196L26.9953 46.0224Z" fill="#161616"/>
<path d="M23.723 31.544C23.6623 31.5452 23.6034 31.5237 23.5577 31.4839C23.512 31.444 23.4828 31.3885 23.4757 31.3283C23.4686 31.2681 23.4842 31.2074 23.5194 31.158C23.5546 31.1086 23.6069 31.0741 23.6661 31.0611C25.9525 30.4792 28.1993 29.7515 30.3926 28.8824L30.5631 28.8171C31.2964 28.4998 32.0665 28.2756 32.8554 28.1495C34.699 27.9365 36.3948 28.7659 37.8918 29.4988C37.9207 29.513 37.9465 29.5327 37.9678 29.5569C37.9891 29.581 38.0054 29.6091 38.0158 29.6396C38.0262 29.6701 38.0306 29.7023 38.0285 29.7344C38.0265 29.7666 38.0181 29.798 38.004 29.8269C37.9898 29.8558 37.9701 29.8816 37.9459 29.9029C37.9217 29.9242 37.8936 29.9405 37.8632 29.9509C37.8327 29.9614 37.8005 29.9657 37.7683 29.9636C37.7362 29.9616 37.7048 29.9533 37.6759 29.9391C36.2386 29.2261 34.6137 28.4421 32.9094 28.6381C32.1626 28.7601 31.4337 28.9739 30.7392 29.2744L30.5688 29.3397C28.3567 30.2187 26.0899 30.9531 23.7826 31.5383C23.7632 31.5435 23.743 31.5454 23.723 31.544Z" fill="#161616"/>
<path d="M58.4377 43.7131H58.4093L55.9522 42.7416C55.9328 42.733 55.9175 42.7173 55.9094 42.6977C55.9013 42.6781 55.901 42.6561 55.9087 42.6364C55.9164 42.6166 55.9314 42.6006 55.9506 42.5916C55.9698 42.5826 55.9917 42.5814 56.0118 42.5882L58.4689 43.5597C58.4789 43.5634 58.4881 43.5692 58.4958 43.5765C58.5036 43.5839 58.5097 43.5927 58.514 43.6026C58.5182 43.6124 58.5204 43.6229 58.5205 43.6336C58.5206 43.6443 58.5185 43.6549 58.5144 43.6648C58.508 43.6797 58.4973 43.6923 58.4836 43.7009C58.4699 43.7095 58.4539 43.7138 58.4377 43.7131Z" fill="#161616"/>
<path d="M59.2558 42.7302C59.2465 42.7332 59.2366 42.7332 59.2274 42.7302C57.8693 42.241 56.5414 41.6719 55.2506 41.0259C55.2408 41.021 55.2322 41.0143 55.2251 41.0061C55.2179 40.9979 55.2125 40.9884 55.2091 40.9781C55.2056 40.9678 55.2043 40.957 55.2051 40.9461C55.2058 40.9353 55.2087 40.9248 55.2136 40.9151C55.2227 40.8976 55.2376 40.8837 55.2557 40.876C55.2738 40.8682 55.2941 40.867 55.313 40.8725C56.603 41.5205 57.931 42.0896 59.2899 42.5768C59.3102 42.5845 59.3268 42.5997 59.3363 42.6192C59.3458 42.6387 59.3475 42.6612 59.341 42.6819C59.3338 42.698 59.3217 42.7114 59.3063 42.7201C59.291 42.7288 59.2733 42.7323 59.2558 42.7302Z" fill="#161616"/>
<path d="M59.4631 41.2105H59.4376C57.9321 40.6964 56.4322 40.1055 54.9779 39.4607C54.9682 39.4564 54.9594 39.4503 54.9521 39.4426C54.9448 39.4349 54.939 39.4259 54.9352 39.416C54.9314 39.4061 54.9295 39.3955 54.9298 39.3849C54.93 39.3743 54.9324 39.3639 54.9367 39.3542C54.941 39.3445 54.9471 39.3357 54.9548 39.3284C54.9625 39.3211 54.9715 39.3154 54.9814 39.3115C54.9913 39.3077 55.0018 39.3059 55.0124 39.3061C55.023 39.3064 55.0335 39.3087 55.0432 39.313C56.4947 39.955 57.9917 40.543 59.4915 41.0571C59.5017 41.0603 59.5111 41.0655 59.5191 41.0725C59.5271 41.0794 59.5336 41.088 59.5382 41.0976C59.5427 41.1072 59.5452 41.1177 59.5455 41.1283C59.5458 41.1389 59.5438 41.1495 59.5398 41.1594C59.5336 41.1746 59.523 41.1876 59.5093 41.1967C59.4956 41.2058 59.4796 41.2106 59.4631 41.2105Z" fill="#161616"/>
<path d="M59.4631 39.7504H59.4347C57.6849 39.063 56.33 38.4693 54.4609 37.6399C54.441 37.6311 54.4253 37.6149 54.4173 37.5947C54.4093 37.5745 54.4097 37.5519 54.4183 37.5319C54.4275 37.5125 54.4438 37.4973 54.4639 37.4894C54.4839 37.4815 54.5062 37.4815 54.5262 37.4893C56.3953 38.3188 57.7503 38.9096 59.4944 39.597C59.5045 39.6011 59.5137 39.6071 59.5215 39.6147C59.5292 39.6224 59.5354 39.6315 59.5396 39.6415C59.5439 39.6516 59.546 39.6623 59.5461 39.6732C59.5461 39.6841 59.544 39.6949 59.5398 39.705C59.533 39.7193 59.5221 39.7314 59.5084 39.7395C59.4948 39.7476 59.479 39.7514 59.4631 39.7504Z" fill="#161616"/>
<path d="M59.0285 38.1029C59.0183 38.1058 59.0075 38.1058 58.9973 38.1029L53.9808 35.9554C53.9609 35.9467 53.9453 35.9304 53.9373 35.9102C53.9293 35.89 53.9296 35.8675 53.9382 35.8475C53.9469 35.8276 53.9632 35.8119 53.9834 35.8039C54.0036 35.796 54.0262 35.7963 54.0461 35.8049L59.0598 37.9523C59.0699 37.9564 59.0791 37.9624 59.0868 37.9701C59.0946 37.9777 59.1008 37.9868 59.105 37.9968C59.1092 38.0069 59.1114 38.0177 59.1115 38.0285C59.1115 38.0394 59.1094 38.0502 59.1052 38.0603C59.0975 38.0737 59.0863 38.0847 59.0728 38.0922C59.0593 38.0997 59.044 38.1034 59.0285 38.1029Z" fill="#161616"/>
<path d="M58.8666 36.5264H58.8325L53.3843 33.9926C53.3649 33.9833 53.3499 33.9669 53.3424 33.9467C53.335 33.9265 53.3358 33.9043 53.3445 33.8846C53.3488 33.8748 53.355 33.8659 53.3629 33.8585C53.3707 33.8511 53.3799 33.8454 53.39 33.8417C53.4001 33.8379 53.4108 33.8363 53.4216 33.8369C53.4323 33.8374 53.4428 33.8401 53.4525 33.8449L58.9007 36.3787C58.9106 36.3829 58.9195 36.3892 58.9268 36.397C58.9342 36.4048 58.9399 36.414 58.9437 36.4241C58.9474 36.4342 58.949 36.445 58.9485 36.4557C58.9479 36.4664 58.9452 36.4769 58.9405 36.4866C58.9326 36.499 58.9217 36.5092 58.9088 36.5162C58.8958 36.5232 58.8813 36.5267 58.8666 36.5264Z" fill="#161616"/>
<path d="M58.3354 34.5436C58.3242 34.5462 58.3126 34.5462 58.3013 34.5436L52.8048 31.9502C52.7933 31.947 52.7827 31.9413 52.7736 31.9336C52.7646 31.9258 52.7573 31.9162 52.7523 31.9054C52.7473 31.8946 52.7447 31.8828 52.7447 31.8709C52.7447 31.859 52.7473 31.8472 52.7523 31.8364C52.7573 31.8255 52.7646 31.8159 52.7736 31.8082C52.7827 31.8005 52.7933 31.7948 52.8048 31.7916C52.8163 31.7884 52.8283 31.7877 52.8401 31.7895C52.8519 31.7914 52.8631 31.7958 52.873 31.8025L58.3695 34.3959C58.386 34.4041 58.3993 34.4175 58.4073 34.4341C58.4153 34.4506 58.4175 34.4694 58.4136 34.4874C58.4097 34.5054 58.3998 34.5215 58.3857 34.5332C58.3715 34.545 58.3538 34.5517 58.3354 34.5522V34.5436Z" fill="#161616"/>
<path d="M57.0998 31.9502H57.0685C55.705 31.3991 54.3103 30.8679 52.9298 30.3708C52.9195 30.3674 52.9101 30.3618 52.902 30.3546C52.894 30.3474 52.8875 30.3385 52.883 30.3287C52.8785 30.3189 52.876 30.3082 52.8758 30.2974C52.8755 30.2865 52.8775 30.2758 52.8815 30.2657C52.8892 30.2455 52.9045 30.2291 52.9242 30.22C52.9438 30.211 52.9663 30.2101 52.9866 30.2175C54.3671 30.7146 55.7619 31.2457 57.131 31.7968C57.1411 31.8009 57.1503 31.8069 57.1581 31.8145C57.1659 31.8222 57.172 31.8313 57.1763 31.8413C57.1805 31.8513 57.1827 31.8621 57.1827 31.873C57.1827 31.8839 57.1806 31.8947 57.1765 31.9048C57.1691 31.9187 57.1581 31.9303 57.1445 31.9383C57.131 31.9463 57.1155 31.9504 57.0998 31.9502Z" fill="#161616"/>
<path d="M56.9918 30.1265H56.9577L54.9949 29.2744C54.9749 29.2653 54.9594 29.2487 54.9517 29.2282C54.9439 29.2077 54.9447 29.185 54.9537 29.165C54.9627 29.145 54.9794 29.1295 54.9999 29.1218C55.0204 29.114 55.0431 29.1148 55.0631 29.1238L57.0231 29.976C57.043 29.9847 57.0586 30.001 57.0666 30.0212C57.0746 30.0414 57.0743 30.064 57.0657 30.0839C57.0587 30.0973 57.048 30.1084 57.0349 30.116C57.0219 30.1235 57.0069 30.1272 56.9918 30.1265Z" fill="#161616"/>
<path d="M15.3972 27.5217C17.3373 28.2035 19.2973 28.8256 21.1664 29.4107C20.8597 30.7685 20.0728 31.9445 19.5445 33.2228C19.2744 33.908 19.043 34.6079 18.8514 35.3191C17.8894 38.6426 16.9671 41.9746 16.0846 45.3151C14.4835 44.7431 12.8354 44.3125 11.1591 44.0283C12.8663 38.4551 14.4087 33.1006 15.3972 27.5217Z" fill="#FA5D32"/>
<g opacity="0.13">
<path d="M23.2884 31.6974C22.8736 33.2739 22.1521 34.4386 21.601 36.177C21.2777 37.1926 21.0233 38.229 20.8398 39.2789C20.7233 39.7448 20.6324 40.2163 20.5387 40.6992C20.4312 41.1123 20.3937 41.5406 20.4279 41.9661C20.4502 42.0584 20.4917 42.145 20.5497 42.2202C20.6077 42.2954 20.6809 42.3575 20.7645 42.4025C20.8481 42.4475 20.9403 42.4744 21.035 42.4815C21.1297 42.4885 21.2248 42.4755 21.3141 42.4433C21.5386 42.6904 21.7772 42.9234 22.0158 43.1563V43.1222C21.9987 42.6592 22.0016 42.1933 22.0158 41.7303C21.9361 41.4679 21.8866 41.1972 21.8681 40.9236C21.959 40.4095 22.0754 39.901 22.1322 39.3812C22.3921 37.7172 22.7951 36.0787 23.3366 34.484C23.49 34.0068 23.6207 33.5182 23.8082 33.0637C23.9502 32.649 24.1803 32.2257 24.1803 31.7826C24.1663 31.6798 24.118 31.5847 24.0431 31.5128C23.9683 31.4409 23.8714 31.3964 23.7681 31.3866C23.6648 31.3767 23.5612 31.402 23.4741 31.4585C23.387 31.5149 23.3216 31.5991 23.2884 31.6974Z" fill="#161616"/>
</g>
<g opacity="0.13">
<path d="M23.757 44.4857C23.7465 44.5355 23.7188 44.5801 23.6789 44.6117C23.639 44.6434 23.5892 44.6601 23.5383 44.659C23.5766 44.6836 23.6197 44.6999 23.6647 44.7067C23.7098 44.7136 23.7557 44.7108 23.7996 44.6987C23.8719 44.6755 23.9344 44.6287 23.9771 44.566C24.0198 44.5032 24.0403 44.4279 24.0354 44.3522L23.757 44.4857Z" fill="#161616"/>
</g>
<g opacity="0.13">
<path d="M20.4279 41.9547L20.4023 41.7672C20.402 41.8306 20.4107 41.8937 20.4279 41.9547Z" fill="#161616"/>
</g>
<path d="M19.0218 46.2298H18.9763C17.5788 45.9628 16.1358 45.6873 14.7155 45.2782C14.1746 45.098 13.6247 44.9463 13.0679 44.8237C12.4224 44.681 11.7859 44.4999 11.1619 44.2812C11.1005 44.2582 11.0505 44.2119 11.0229 44.1524C10.9953 44.0928 10.9921 44.0248 11.0142 43.963C11.0378 43.9028 11.0838 43.854 11.1426 43.827C11.2014 43.8 11.2684 43.7968 11.3295 43.8182C11.9331 44.0287 12.5487 44.2032 13.173 44.3408C13.7412 44.4662 14.3025 44.6207 14.8547 44.8038C16.1699 45.1788 17.522 45.4458 18.8315 45.6958C19.3996 43.2756 20.1779 40.9123 20.9278 38.6227C21.3738 37.2593 21.8368 35.8503 22.2572 34.4272C22.2572 34.4272 22.2572 34.4272 22.2572 34.4073C22.3992 34.038 22.5413 33.6773 22.6975 33.3251C23.1243 32.4012 23.4454 31.4321 23.6548 30.4362L23.6321 30.4163C23.6055 30.4164 23.5793 30.4106 23.5554 30.3993C22.3181 29.9295 21.056 29.5284 19.7745 29.1977C18.2454 28.8095 16.7464 28.311 15.2893 27.7064C15.233 27.6778 15.1898 27.6287 15.1686 27.5692C15.1474 27.5097 15.1497 27.4444 15.1752 27.3866C15.2006 27.3288 15.2472 27.2829 15.3054 27.2584C15.3636 27.2339 15.429 27.2326 15.4881 27.2547C16.9271 27.8533 18.4082 28.3451 19.9194 28.7262C21.2049 29.0612 22.4717 29.4642 23.7144 29.9334C23.8365 29.9538 23.9477 30.0159 24.029 30.1091C24.1104 30.2024 24.1568 30.321 24.1604 30.4447C24.1604 30.4589 24.1604 30.4731 24.1604 30.4873C23.9451 31.5324 23.6105 32.5494 23.1634 33.5182C23.0185 33.8619 22.8793 34.217 22.7344 34.5778C22.3112 35.998 21.8482 37.4183 21.4022 38.779C20.5955 41.2389 19.8342 43.5597 19.2632 46.0395C19.2509 46.0941 19.2202 46.1428 19.1762 46.1774C19.1323 46.212 19.0778 46.2305 19.0218 46.2298Z" fill="#161616"/>
<path d="M16.1557 45.4714C16.1368 45.4742 16.1177 45.4742 16.0988 45.4714C16.0378 45.4565 15.9849 45.4186 15.9511 45.3657C15.9172 45.3128 15.905 45.2489 15.917 45.1873C17.2042 39.7701 18.8836 34.4536 20.942 29.2801C20.9666 29.2202 21.0139 29.1726 21.0735 29.1475C21.1331 29.1225 21.2003 29.1222 21.2602 29.1466C21.3207 29.1712 21.3691 29.2187 21.3946 29.2789C21.4202 29.339 21.4209 29.4069 21.3965 29.4675C19.3483 34.6113 17.6774 39.8974 16.3971 45.2839C16.3842 45.3379 16.3532 45.386 16.3093 45.4201C16.2654 45.4541 16.2112 45.4722 16.1557 45.4714Z" fill="#161616"/>
<path d="M47.6918 47.2666C47.6434 47.2662 47.5962 47.2518 47.5558 47.225C47.5155 47.1983 47.4838 47.1605 47.4645 47.1161C47.4397 47.0565 47.4391 46.9895 47.463 46.9295C47.4869 46.8695 47.5333 46.8213 47.5923 46.7951C49.2228 46.0878 50.8675 45.3549 52.481 44.6164C52.5401 44.5892 52.6076 44.5867 52.6686 44.6094C52.7296 44.632 52.7791 44.6779 52.8062 44.7371C52.8333 44.7962 52.8359 44.8637 52.8132 44.9247C52.7906 44.9857 52.7446 45.0352 52.6855 45.0623C51.0692 45.8037 49.4217 46.5394 47.7883 47.2439C47.7581 47.2581 47.7252 47.2659 47.6918 47.2666Z" fill="#161616"/>
<path d="M43.59 28.8994C43.5249 28.8979 43.4631 28.8709 43.4179 28.8241C43.3727 28.7773 43.3478 28.7145 43.3485 28.6495L43.4195 21.7525C43.4195 21.6877 43.4453 21.6256 43.4911 21.5798C43.5369 21.534 43.599 21.5082 43.6638 21.5082C43.7291 21.5097 43.7913 21.5367 43.8369 21.5834C43.8826 21.6302 43.9081 21.6929 43.9081 21.7582L43.8371 28.658C43.8356 28.7225 43.8089 28.7839 43.7627 28.8291C43.7166 28.8742 43.6545 28.8994 43.59 28.8994Z" fill="#161616"/>
<path d="M42.2094 23.7523C42.1509 23.7523 42.0944 23.7312 42.0504 23.6927C42.0256 23.6719 42.0051 23.6464 41.9903 23.6177C41.9754 23.5889 41.9664 23.5576 41.9637 23.5253C41.9611 23.4931 41.9649 23.4606 41.9749 23.4299C41.9849 23.3991 42.0009 23.3706 42.022 23.3461C42.5801 22.6933 43.073 21.9874 43.4934 21.2384C43.516 21.2003 43.548 21.1686 43.5862 21.1462C43.6245 21.1238 43.6678 21.1116 43.7121 21.1106C43.7563 21.1117 43.7994 21.1247 43.8369 21.1482C43.8744 21.1717 43.9048 21.2048 43.9252 21.2441L43.9734 21.335C44.3026 22.0384 44.7053 22.7049 45.175 23.3234C45.1949 23.3487 45.2095 23.3777 45.2181 23.4087C45.2267 23.4397 45.2291 23.4721 45.2251 23.5041C45.2212 23.536 45.211 23.5669 45.195 23.5948C45.1791 23.6228 45.1578 23.6474 45.1324 23.6671C45.1072 23.6873 45.0782 23.7023 45.0472 23.7111C45.0161 23.7199 44.9836 23.7224 44.9515 23.7184C44.9195 23.7144 44.8886 23.7041 44.8606 23.688C44.8326 23.6718 44.8082 23.6502 44.7887 23.6245C44.3667 23.0771 44.0003 22.4891 43.6951 21.869C43.3104 22.5016 42.8764 23.1029 42.3969 23.6671C42.3736 23.6939 42.3448 23.7154 42.3125 23.7302C42.2801 23.7449 42.245 23.7524 42.2094 23.7523Z" fill="#161616"/>
<path d="M37.2668 26.786C37.2345 26.786 37.2025 26.7796 37.1727 26.7672C37.1429 26.7547 37.1158 26.7365 37.0931 26.7135C37.0704 26.6905 37.0524 26.6632 37.0403 26.6333C37.0282 26.6033 37.0222 26.5712 37.0226 26.5389L37.0936 19.6391C37.0951 19.5746 37.1217 19.5132 37.1679 19.468C37.2141 19.4229 37.2761 19.3977 37.3407 19.3977C37.3729 19.3977 37.4048 19.4041 37.4344 19.4166C37.4641 19.4291 37.491 19.4474 37.5135 19.4704C37.536 19.4934 37.5536 19.5207 37.5654 19.5507C37.5772 19.5806 37.5829 19.6126 37.5821 19.6448L37.5111 26.5446C37.5104 26.6089 37.4843 26.6703 37.4386 26.7155C37.3929 26.7607 37.3311 26.786 37.2668 26.786Z" fill="#161616"/>
<path d="M35.8835 21.6417C35.8211 21.6446 35.76 21.6233 35.713 21.5821C35.6676 21.5359 35.6421 21.4736 35.6421 21.4088C35.6421 21.344 35.6676 21.2818 35.713 21.2355C36.2661 20.5816 36.7532 19.8746 37.1674 19.125C37.1893 19.0865 37.2212 19.0545 37.2597 19.0325C37.2981 19.0105 37.3418 18.9993 37.3861 19C37.4307 19.0012 37.4741 19.0142 37.5121 19.0377C37.55 19.0611 37.581 19.0942 37.602 19.1335L37.6475 19.2216C37.9774 19.9245 38.3801 20.591 38.849 21.21C38.8697 21.2352 38.885 21.2644 38.8941 21.2958C38.9032 21.3271 38.9058 21.36 38.9018 21.3924C38.8979 21.4247 38.8873 21.456 38.871 21.4842C38.8546 21.5124 38.8326 21.537 38.8064 21.5565C38.755 21.5959 38.6901 21.6135 38.6259 21.6055C38.5616 21.5975 38.503 21.5646 38.4627 21.5139C38.041 20.9653 37.6747 20.3764 37.3691 19.7556C36.9862 20.3903 36.5521 20.9926 36.071 21.5565C36.0478 21.5835 36.019 21.6051 35.9866 21.6199C35.9543 21.6346 35.919 21.642 35.8835 21.6417Z" fill="#161616"/>
<path d="M30.0717 27.6979C30.0396 27.6975 30.0079 27.6908 29.9784 27.6782C29.9489 27.6656 29.9222 27.6473 29.8997 27.6243C29.8773 27.6014 29.8596 27.5742 29.8477 27.5444C29.8358 27.5146 29.8298 27.4828 29.8302 27.4507L29.9012 20.551C29.902 20.4867 29.928 20.4253 29.9738 20.3801C30.0195 20.3349 30.0812 20.3095 30.1455 20.3095C30.1778 20.3095 30.2098 20.3159 30.2397 20.3284C30.2695 20.3408 30.2965 20.3591 30.3193 20.3821C30.342 20.405 30.3599 20.4323 30.372 20.4623C30.3841 20.4922 30.3902 20.5243 30.3898 20.5566L30.3159 27.4536C30.3152 27.5181 30.2892 27.5798 30.2436 27.6255C30.1979 27.6711 30.1362 27.6971 30.0717 27.6979Z" fill="#161616"/>
<path d="M28.6911 22.5507C28.6332 22.5506 28.577 22.5305 28.5321 22.4939C28.5073 22.4732 28.4868 22.4477 28.472 22.4189C28.4571 22.3902 28.4481 22.3588 28.4454 22.3266C28.4428 22.2943 28.4466 22.2619 28.4566 22.2311C28.4666 22.2004 28.4826 22.1719 28.5036 22.1474C29.0603 21.4924 29.553 20.7856 29.9751 20.0368C29.9974 19.9987 30.0294 19.9671 30.0678 19.9451C30.1061 19.9232 30.1496 19.9117 30.1938 19.9118C30.2381 19.9124 30.2815 19.9251 30.3191 19.9487C30.3566 19.9722 30.387 20.0057 30.4068 20.0453L30.4523 20.1334C30.7835 20.8363 31.1871 21.5027 31.6567 22.1218C31.6962 22.1737 31.7139 22.239 31.7059 22.3038C31.698 22.3685 31.665 22.4276 31.6141 22.4684C31.5883 22.4881 31.559 22.5026 31.5276 22.5111C31.4963 22.5195 31.4636 22.5216 31.4314 22.5174C31.3992 22.5132 31.3682 22.5027 31.3401 22.4865C31.3119 22.4702 31.2873 22.4486 31.2675 22.4229C30.8459 21.8753 30.4796 21.2873 30.1739 20.6674C29.7919 21.3018 29.3577 21.9033 28.8758 22.4655C28.853 22.4923 28.8247 22.5138 28.7929 22.5285C28.761 22.5432 28.7262 22.5508 28.6911 22.5507Z" fill="#161616"/>
</g>
<defs>
<clipPath id="clip0_18_13">
<rect width="49" height="32.019" fill="white" transform="translate(11 19)"/>
</clipPath>
</defs>
</svg>
