<svg width="70" height="70" viewBox="0 0 70 70" fill="none" xmlns="http://www.w3.org/2000/svg">
<circle opacity="0.2" cx="35" cy="35" r="35" fill="#FA5D32"/>
<g clip-path="url(#clip0_18_75)">
<path d="M24.8146 13.7188C35.2744 13.2502 45.754 13.2144 56.1304 13.6433C56.8174 25.2309 57.1867 36.9772 54.812 48.3265C54.4427 50.0857 53.99 51.8766 52.9773 53.3459C52.0948 54.5833 50.8472 55.5135 49.4095 56.0063C47.9717 56.4991 46.4158 56.5297 44.9598 56.0939C36.9065 55.9589 30.3503 55.1686 22.1302 54.7556C26.0417 41.2461 24.5366 27.5817 24.8146 13.7188Z" fill="white"/>
<path d="M47.0287 56.7332C46.3128 56.7323 45.6005 56.6321 44.9121 56.4354C40.0436 56.352 35.7787 56.0383 31.2437 55.6968C28.3488 55.4824 25.3507 55.26 22.1103 55.0972C22.0588 55.0942 22.0085 55.0798 21.9632 55.0551C21.9179 55.0304 21.8786 54.9959 21.8482 54.9542C21.8183 54.9121 21.7985 54.8638 21.7902 54.8128C21.782 54.7619 21.7855 54.7097 21.8006 54.6604C24.7233 44.5421 24.6041 34.5549 24.481 23.9839C24.4413 20.6244 24.3976 17.1498 24.481 13.7108C24.4875 13.6291 24.5232 13.5525 24.5815 13.4949C24.6398 13.4373 24.7169 13.4026 24.7987 13.3971C35.3697 12.9007 45.9168 12.8769 56.1462 13.3018C56.2311 13.3055 56.3116 13.3404 56.3724 13.3997C56.4332 13.459 56.47 13.5387 56.4758 13.6235C57.139 24.8298 57.5837 36.7469 55.1455 48.398C54.7961 50.0698 54.3513 51.9719 53.2593 53.5604C52.5517 54.5505 51.6161 55.3558 50.5316 55.908C49.4471 56.4603 48.2456 56.7433 47.0287 56.7332ZM22.5829 54.434C25.6604 54.5968 28.5394 54.8073 31.2954 55.0138C35.8224 55.3513 40.0992 55.669 44.9717 55.7484C45.0018 55.7427 45.0328 55.7427 45.063 55.7484C46.449 56.1593 47.9286 56.1285 49.2963 55.6603C50.664 55.192 51.852 54.3096 52.6954 53.1355C53.6961 51.6821 54.1369 49.8474 54.4744 48.2392C56.857 36.7787 56.4599 25.0283 55.8087 13.961C45.7976 13.5639 35.4888 13.5639 25.1521 14.0325C25.0926 17.3523 25.1521 20.7078 25.172 23.9601C25.2911 33.995 25.4142 44.3713 22.5829 54.434Z" fill="#161616"/>
<path d="M12.8458 47.3298C22.9522 47.1511 33.0664 47.2265 42.9941 47.3774C42.6413 50.0061 43.1617 52.6779 44.4753 54.982C44.8724 55.6968 45.5197 56.4433 46.2901 56.3917C36.8429 56.3044 27.6023 57.1859 18.0558 56.3917C16.2768 56.1535 13.9339 55.3672 12.961 52.8654C12.3018 51.1618 12.0318 49.1763 12.8458 47.3298Z" fill="white"/>
<path d="M27.0145 57.0787C24.0402 57.0787 21.058 56.9953 18.028 56.7491C15.3079 56.3719 13.4534 55.0932 12.6433 52.9885C12.0715 51.5192 11.6029 49.3232 12.5321 47.1947C12.5575 47.1344 12.6 47.0827 12.6543 47.046C12.7086 47.0094 12.7724 46.9893 12.8379 46.9883C21.5107 46.8334 30.8148 46.8493 43.0179 47.0359C43.0672 47.0364 43.1157 47.0475 43.1603 47.0686C43.2049 47.0896 43.2443 47.12 43.276 47.1577C43.3077 47.1955 43.3309 47.2396 43.3439 47.2871C43.3569 47.3346 43.3595 47.3844 43.3515 47.433C43.0075 49.9866 43.514 52.5823 44.793 54.8192C45.0511 55.2679 45.5594 56.0105 46.159 56.0542H46.3139C46.4045 56.0542 46.4913 56.0902 46.5554 56.1542C46.6194 56.2182 46.6554 56.3051 46.6554 56.3957C46.6554 56.4863 46.6194 56.5731 46.5554 56.6372C46.4913 56.7012 46.4045 56.7372 46.3139 56.7372C46.2438 56.7412 46.1735 56.7412 46.1034 56.7372C42.7002 56.7094 39.2653 56.8047 35.9455 56.9C33.0108 56.9794 30.0286 57.0787 27.0145 57.0787ZM13.0761 47.6713C12.3455 49.5337 12.7942 51.4398 13.2826 52.7383C14.1841 55.0654 16.3999 55.8239 18.1035 56.0542C24.1038 56.5386 30.112 56.3719 35.9256 56.209C38.8364 56.1257 41.8306 56.0423 44.8247 56.0423C44.5712 55.7724 44.35 55.4739 44.1655 55.1527C42.8714 52.9005 42.3159 50.2993 42.5771 47.715C30.7195 47.5482 21.5861 47.5204 13.0761 47.6713Z" fill="#161616"/>
<path d="M22.2255 28.7294C22.0468 32.8116 22.011 36.7747 22.1341 40.8848C24.9695 40.8848 27.8683 41.2144 30.7195 40.8093C30.5845 36.8382 30.4733 32.9029 30.4336 28.8644C31.8592 28.8644 33.2809 28.8644 34.7144 28.8366C31.9903 25.6597 29.2661 22.4829 26.3434 19.2663C23.4896 22.2976 20.7469 25.44 18.1154 28.6936C19.4934 28.6936 20.8952 28.7294 22.2255 28.7294Z" fill="#FA5D32"/>
<path d="M27.3998 41.3573C26.4864 41.3573 25.577 41.3255 24.6836 41.2938C23.7901 41.262 22.976 41.2302 22.1302 41.2302C22.0416 41.2283 21.957 41.1928 21.8936 41.1308C21.8302 41.0689 21.7927 40.9852 21.7887 40.8967C21.6735 37.009 21.6973 33.1372 21.8681 29.0709C21.3082 29.0709 20.7363 29.0709 20.1605 29.0709C19.4815 29.0709 18.7945 29.0709 18.1115 29.0709C18.0417 29.0763 17.9719 29.0601 17.9116 29.0245C17.8513 28.9889 17.8034 28.9357 17.7743 28.872C17.7453 28.8083 17.7366 28.7372 17.7493 28.6684C17.762 28.5995 17.7955 28.5362 17.8454 28.4871C20.5259 25.1872 23.3016 22.0063 26.0933 19.0439C26.1244 19.0086 26.163 18.9807 26.2063 18.9622C26.2496 18.9436 26.2964 18.9349 26.3435 18.9367C26.3912 18.9364 26.4386 18.9462 26.4823 18.9653C26.5261 18.9845 26.5654 19.0126 26.5976 19.0479C29.5163 22.2684 32.2881 25.4929 34.9646 28.6142C35.0079 28.6634 35.0365 28.7237 35.0471 28.7884C35.0578 28.853 35.05 28.9193 35.0248 28.9798C34.9995 29.0403 34.9578 29.0924 34.9043 29.1303C34.8508 29.1681 34.7878 29.1902 34.7224 29.194C33.4 29.2178 32.0697 29.2178 30.7831 29.2178C30.8188 32.6527 30.9062 36.2466 31.065 40.8093C31.0669 40.8944 31.0377 40.9772 30.9829 41.0423C30.9281 41.1073 30.8514 41.1502 30.7672 41.1627C29.6507 41.3069 28.5254 41.3719 27.3998 41.3573ZM22.4677 40.5631C23.2143 40.5631 23.9727 40.5988 24.7074 40.6266C26.5932 40.7437 28.4853 40.7118 30.3661 40.5313C30.2073 35.9567 30.1239 32.3509 30.0921 28.8882C30.092 28.7963 30.1276 28.708 30.1914 28.642C30.2554 28.5769 30.3424 28.5398 30.4336 28.5387C31.5972 28.5387 32.7885 28.5387 33.9798 28.5387C31.5177 25.6716 28.9882 22.737 26.3395 19.8024C23.798 22.5067 21.2804 25.3897 18.8342 28.3799H20.1724C20.8674 28.3799 21.5544 28.3799 22.2255 28.3799C22.272 28.3793 22.3182 28.3882 22.3612 28.4061C22.4041 28.424 22.443 28.4505 22.4754 28.484C22.5077 28.5175 22.5329 28.5572 22.5493 28.6008C22.5658 28.6443 22.5731 28.6908 22.571 28.7373C22.3923 32.8076 22.3565 36.6715 22.4677 40.5432V40.5631Z" fill="#161616"/>
<path d="M50.8806 22.0222C45.3489 21.8713 39.7616 21.8475 34.2022 21.9547C34.1559 21.958 34.1094 21.9517 34.0657 21.9362C34.0219 21.9207 33.9818 21.8964 33.9479 21.8647C33.914 21.833 33.887 21.7947 33.8686 21.7521C33.8501 21.7095 33.8407 21.6636 33.8408 21.6172C33.8397 21.572 33.8477 21.5271 33.8641 21.485C33.8805 21.4429 33.9052 21.4045 33.9366 21.372C33.968 21.3395 34.0055 21.3135 34.047 21.2956C34.0885 21.2777 34.1331 21.2683 34.1783 21.2677C39.718 21.1645 45.337 21.1843 50.8806 21.3352C50.9653 21.3444 51.0437 21.3845 51.1006 21.4479C51.1576 21.5113 51.1891 21.5935 51.1891 21.6787C51.1891 21.764 51.1576 21.8462 51.1006 21.9096C51.0437 21.973 50.9653 22.0131 50.8806 22.0222Z" fill="#161616"/>
<path d="M50.408 28.2369L37.8635 28.1257C37.7729 28.1237 37.6866 28.0865 37.6229 28.022C37.5592 27.9576 37.523 27.8709 37.522 27.7803C37.522 27.6897 37.558 27.6028 37.622 27.5388C37.686 27.4747 37.7729 27.4388 37.8635 27.4388L50.412 27.5499C50.4572 27.5499 50.5019 27.5589 50.5436 27.5763C50.5853 27.5937 50.6232 27.6192 50.6549 27.6514C50.6867 27.6835 50.7118 27.7216 50.7287 27.7635C50.7456 27.8054 50.7541 27.8502 50.7535 27.8954C50.7515 27.986 50.7143 28.0723 50.6498 28.136C50.5854 28.1997 50.4987 28.2359 50.408 28.2369Z" fill="#161616"/>
<path d="M33.8686 34.5986C33.7839 34.5895 33.7055 34.5493 33.6486 34.4859C33.5916 34.4225 33.5601 34.3403 33.5601 34.2551C33.5601 34.1699 33.5916 34.0876 33.6486 34.0242C33.7055 33.9608 33.7839 33.9207 33.8686 33.9116C39.2693 33.713 44.7533 33.6257 50.1499 33.6574C50.2406 33.6595 50.3268 33.6967 50.3905 33.7611C50.4543 33.8256 50.4904 33.9123 50.4915 34.0029C50.4904 34.0939 50.4535 34.1807 50.3889 34.2446C50.3242 34.3086 50.2369 34.3444 50.146 34.3444C44.7414 34.3127 39.2693 34.4 33.8646 34.5946L33.8686 34.5986Z" fill="#161616"/>
<path d="M33.6978 40.4003C33.6131 40.3911 33.5347 40.351 33.4778 40.2876C33.4208 40.2242 33.3893 40.142 33.3893 40.0568C33.3893 39.9716 33.4208 39.8893 33.4778 39.8259C33.5347 39.7625 33.6131 39.7224 33.6978 39.7133L50.1857 39.4353C50.2339 39.4301 50.2826 39.4351 50.3288 39.45C50.3749 39.4649 50.4174 39.4894 50.4535 39.5218C50.4896 39.5542 50.5184 39.5938 50.5382 39.6381C50.5579 39.6824 50.5681 39.7303 50.5681 39.7788C50.5681 39.8273 50.5579 39.8752 50.5382 39.9195C50.5184 39.9638 50.4896 40.0034 50.4535 40.0358C50.4174 40.0682 50.3749 40.0927 50.3288 40.1076C50.2826 40.1225 50.2339 40.1275 50.1857 40.1223L33.7018 40.4003H33.6978Z" fill="#161616"/>
<path d="M14.5613 50.7846C14.5407 50.7853 14.5202 50.7803 14.5023 50.7701C14.4843 50.7599 14.4695 50.7449 14.4596 50.7267C14.4497 50.7086 14.4451 50.688 14.4462 50.6674C14.4473 50.6467 14.4542 50.6268 14.466 50.6099C14.9153 49.8984 15.434 49.2333 16.0148 48.6243C16.0372 48.6045 16.0662 48.5936 16.0962 48.5936C16.1261 48.5936 16.1551 48.6045 16.1776 48.6243C16.1982 48.6464 16.2097 48.6755 16.2097 48.7057C16.2097 48.736 16.1982 48.7651 16.1776 48.7871C15.6092 49.3825 15.0999 50.0315 14.6567 50.725C14.6475 50.7425 14.6338 50.7573 14.6171 50.7677C14.6003 50.7782 14.5811 50.784 14.5613 50.7846Z" fill="#161616"/>
<path d="M14.8036 53.8224C14.7828 53.8282 14.7608 53.8282 14.74 53.8224C14.7149 53.8055 14.6975 53.7793 14.6915 53.7496C14.6856 53.7198 14.6916 53.6889 14.7083 53.6636C15.8866 51.899 17.2152 50.2395 18.6793 48.7038C18.7014 48.6831 18.7305 48.6716 18.7607 48.6716C18.791 48.6716 18.8201 48.6831 18.8421 48.7038C18.8637 48.7253 18.8758 48.7546 18.8758 48.7852C18.8758 48.8157 18.8637 48.845 18.8421 48.8666C17.3885 50.3843 16.0691 52.0252 14.8989 53.7708C14.8887 53.7868 14.8746 53.8 14.8579 53.809C14.8413 53.8181 14.8225 53.8227 14.8036 53.8224Z" fill="#161616"/>
<path d="M16.7375 55.0138C16.718 55.0192 16.6974 55.0192 16.6779 55.0138C16.6521 54.9974 16.6338 54.9715 16.6271 54.9418C16.6204 54.912 16.6258 54.8807 16.6422 54.8549C18.0169 52.7041 19.543 50.6538 21.2089 48.7196C21.2305 48.6981 21.2597 48.6859 21.2903 48.6859C21.3208 48.6859 21.3501 48.6981 21.3717 48.7196C21.3822 48.73 21.3906 48.7424 21.3964 48.756C21.4021 48.7696 21.4051 48.7843 21.4051 48.7991C21.4051 48.8139 21.4021 48.8285 21.3964 48.8421C21.3906 48.8558 21.3822 48.8681 21.3717 48.8785C19.713 50.8052 18.1935 52.8475 16.8248 54.9899C16.8126 54.9996 16.7986 55.0067 16.7836 55.0108C16.7686 55.0149 16.7529 55.0159 16.7375 55.0138Z" fill="#161616"/>
<path d="M19.688 55.2639C19.6685 55.2694 19.6479 55.2694 19.6284 55.2639C19.6026 55.2476 19.5843 55.2217 19.5776 55.1919C19.5709 55.1621 19.5763 55.1309 19.5927 55.1051C20.9338 52.936 22.392 50.8415 23.9608 48.8308C23.9824 48.8092 24.0117 48.7971 24.0422 48.7971C24.0728 48.7971 24.102 48.8092 24.1236 48.8308C24.1461 48.8501 24.1605 48.8771 24.1642 48.9064C24.1679 48.9358 24.1605 48.9655 24.1435 48.9897C22.5737 50.9941 21.1154 53.0833 19.7753 55.2481C19.7625 55.2563 19.7482 55.262 19.7332 55.2648C19.7182 55.2675 19.7028 55.2672 19.688 55.2639Z" fill="#161616"/>
<path d="M22.3843 55.4903C22.3647 55.4949 22.3443 55.4949 22.3247 55.4903C22.3004 55.4727 22.2836 55.4466 22.2777 55.4171C22.2718 55.3876 22.2773 55.3571 22.293 55.3314L26.6929 48.676C26.7006 48.6628 26.7109 48.6513 26.7233 48.6423C26.7356 48.6332 26.7496 48.6269 26.7645 48.6235C26.7794 48.6201 26.7949 48.6199 26.8099 48.6228C26.8249 48.6257 26.8391 48.6316 26.8517 48.6402C26.8769 48.6572 26.8943 48.6834 26.9003 48.7131C26.9062 48.7428 26.9002 48.7737 26.8835 48.7991L22.4796 55.4546C22.4677 55.4677 22.4529 55.4777 22.4363 55.484C22.4197 55.4902 22.4019 55.4923 22.3843 55.4903Z" fill="#161616"/>
<path d="M25.4182 55.2997C25.3976 55.3066 25.3753 55.3066 25.3547 55.2997C25.3295 55.2827 25.3121 55.2565 25.3061 55.2268C25.3002 55.197 25.3062 55.1662 25.3229 55.1408C26.7247 53.0004 28.1026 50.7727 29.3694 48.5727C29.3768 48.5593 29.3869 48.5475 29.3989 48.538C29.411 48.5285 29.4248 48.5215 29.4396 48.5174C29.4544 48.5134 29.4699 48.5123 29.4851 48.5143C29.5003 48.5163 29.515 48.5213 29.5282 48.529C29.5539 48.5454 29.5723 48.571 29.5797 48.6005C29.5871 48.6301 29.5829 48.6613 29.568 48.6879C28.2813 50.8878 26.9153 53.1077 25.5016 55.2481C25.4924 55.2623 25.4801 55.2743 25.4657 55.2832C25.4513 55.2921 25.435 55.2977 25.4182 55.2997Z" fill="#161616"/>
<path d="M28.0391 55.3513C28.0166 55.3503 27.9947 55.3434 27.9756 55.3315C27.9504 55.3145 27.933 55.2883 27.927 55.2586C27.9211 55.2288 27.9271 55.1979 27.9438 55.1726C29.3734 53.0561 30.7791 50.8759 32.1253 48.6958C32.1327 48.6829 32.1426 48.6715 32.1545 48.6625C32.1663 48.6534 32.1799 48.6468 32.1943 48.6431C32.2088 48.6394 32.2238 48.6387 32.2386 48.6409C32.2533 48.6431 32.2675 48.6483 32.2802 48.6561C32.2933 48.6639 32.3047 48.6742 32.3138 48.6864C32.3229 48.6986 32.3295 48.7125 32.3332 48.7273C32.3369 48.742 32.3376 48.7574 32.3353 48.7724C32.3331 48.7875 32.3278 48.802 32.3199 48.815C30.9737 50.999 29.564 53.1831 28.1344 55.2997C28.124 55.3155 28.1098 55.3284 28.0932 55.3374C28.0766 55.3464 28.058 55.3512 28.0391 55.3513Z" fill="#161616"/>
<path d="M31.0611 55.2639C31.0385 55.2629 31.0166 55.2561 30.9975 55.2441C30.9732 55.2265 30.9564 55.2003 30.9505 55.1709C30.9446 55.1414 30.9501 55.1108 30.9658 55.0852C32.3517 53.0322 33.678 50.8997 34.905 48.7316C34.9125 48.7181 34.9225 48.7063 34.9346 48.6968C34.9466 48.6873 34.9605 48.6803 34.9753 48.6763C34.9901 48.6722 35.0055 48.6711 35.0208 48.6731C35.036 48.6751 35.0506 48.6801 35.0639 48.6879C35.0893 48.7035 35.1076 48.7284 35.115 48.7573C35.1224 48.7862 35.1183 48.8168 35.1036 48.8427C33.8726 51.003 32.5462 53.1394 31.1564 55.1964C31.1483 55.2154 31.1351 55.2318 31.1183 55.2437C31.1015 55.2556 31.0817 55.2626 31.0611 55.2639Z" fill="#161616"/>
<path d="M33.9401 55.0694C33.9218 55.0733 33.9028 55.0733 33.8845 55.0694C33.871 55.0619 33.8592 55.0519 33.8497 55.0398C33.8403 55.0278 33.8333 55.0139 33.8292 54.9991C33.8251 54.9843 33.8241 54.9689 33.826 54.9537C33.828 54.9384 33.8331 54.9238 33.8408 54.9105L37.379 48.6879C37.3848 48.6723 37.3939 48.6582 37.4057 48.6464C37.4174 48.6347 37.4316 48.6256 37.4472 48.6199C37.4628 48.6142 37.4795 48.6119 37.4961 48.6132C37.5126 48.6145 37.5287 48.6194 37.5432 48.6275C37.5577 48.6356 37.5703 48.6468 37.5801 48.6602C37.5899 48.6737 37.5966 48.6891 37.5999 48.7054C37.6031 48.7217 37.6028 48.7385 37.599 48.7547C37.5951 48.7709 37.5878 48.786 37.5776 48.7991L34.0393 55.0098C34.0295 55.0276 34.0152 55.0425 33.9977 55.053C33.9803 55.0634 33.9604 55.0691 33.9401 55.0694Z" fill="#161616"/>
<path d="M36.4101 55.3315C36.3906 55.3369 36.37 55.3369 36.3505 55.3315C36.3252 55.3158 36.3067 55.2912 36.2986 55.2625C36.2905 55.2338 36.2935 55.2032 36.3069 55.1766C37.5895 52.917 38.9556 50.6615 40.3732 48.4814C40.3812 48.4691 40.3916 48.4585 40.4038 48.4502C40.4159 48.4419 40.4296 48.4361 40.444 48.4332C40.4584 48.4302 40.4733 48.4302 40.4877 48.433C40.5021 48.4358 40.5159 48.4414 40.5281 48.4496C40.5413 48.4573 40.5528 48.4676 40.5618 48.48C40.5708 48.4923 40.5772 48.5063 40.5805 48.5213C40.5839 48.5362 40.5841 48.5516 40.5813 48.5666C40.5784 48.5816 40.5725 48.5958 40.5638 48.6085C39.1501 50.7846 37.7841 53.0322 36.5094 55.2878C36.4977 55.3026 36.4825 55.3144 36.4652 55.322C36.4479 55.3296 36.429 55.3329 36.4101 55.3315Z" fill="#161616"/>
<path d="M39.4241 54.8668C39.4059 54.8721 39.3867 54.8721 39.3685 54.8668C39.3418 54.8525 39.3218 54.8282 39.3128 54.7992C39.3039 54.7702 39.3068 54.7389 39.3209 54.712C39.9782 53.4679 40.7254 52.2734 41.5566 51.138C41.5652 51.1258 41.5763 51.1154 41.589 51.1075C41.6018 51.0996 41.616 51.0944 41.6309 51.0922C41.6457 51.09 41.6609 51.0908 41.6754 51.0946C41.6899 51.0983 41.7035 51.105 41.7154 51.1142C41.7393 51.1324 41.7551 51.1591 41.7596 51.1888C41.764 51.2184 41.7567 51.2487 41.7392 51.273C40.9175 52.4011 40.177 53.5861 39.5234 54.8192C39.5124 54.8351 39.4975 54.8478 39.48 54.8562C39.4626 54.8645 39.4434 54.8682 39.4241 54.8668Z" fill="#161616"/>
<path d="M41.632 55.3434C41.6114 55.3503 41.5891 55.3503 41.5685 55.3434C41.5433 55.3264 41.5259 55.3002 41.5199 55.2705C41.514 55.2407 41.52 55.2098 41.5367 55.1845L42.2872 54.0686C42.2947 54.0544 42.3052 54.0418 42.3178 54.0319C42.3305 54.0219 42.3451 54.0146 42.3607 54.0107C42.3764 54.0067 42.3927 54.006 42.4086 54.0088C42.4245 54.0115 42.4396 54.0175 42.453 54.0265C42.4664 54.0354 42.4778 54.0471 42.4865 54.0607C42.4951 54.0743 42.5007 54.0896 42.5031 54.1056C42.5054 54.1215 42.5044 54.1378 42.5 54.1533C42.4957 54.1689 42.4881 54.1833 42.4778 54.1957L41.7273 55.3116C41.7152 55.3243 41.7002 55.3338 41.6836 55.3393C41.667 55.3449 41.6493 55.3462 41.632 55.3434Z" fill="#161616"/>
<g opacity="0.13">
<path d="M45.4045 55.3156C45.129 55.1215 44.8318 54.9603 44.519 54.8351C44.4674 54.7 44.3999 54.573 44.3403 54.438V54.4856C44.1854 54.1221 44.0527 53.7494 43.9432 53.3697C43.8955 53.2387 43.7327 52.5755 43.697 52.5041C43.6962 52.3311 43.6295 52.1649 43.5103 52.0394C43.3916 51.923 43.2319 51.8578 43.0656 51.8578C42.8993 51.8578 42.7396 51.923 42.6208 52.0394C42.5023 52.1823 42.4266 52.3558 42.4024 52.5398C42.4024 52.5716 42.4024 52.5914 42.3786 52.6113C42.3548 52.6311 42.2833 52.79 42.2197 52.8892L42.1086 53.0362C41.7631 53.3975 42.0291 53.1712 41.5447 53.4968C41.4073 53.586 41.2625 53.6631 41.1118 53.7271L41.0483 53.751C40.6512 53.886 40.4129 53.9614 40.2183 54.0051C39.3606 54.0051 38.3678 54.0528 37.5855 54.1044C35.8224 54.1044 34.0711 54.291 32.312 54.3149C30.5409 54.43 28.7658 54.4737 26.9947 54.5452C25.2486 54.6961 23.4935 54.712 21.745 54.5928C20.1248 54.4181 18.6912 54.2593 17.0274 53.9733C16.5644 53.8792 16.1101 53.7463 15.6693 53.5762C15.5455 53.4888 15.4056 53.4269 15.2576 53.3941C15.1096 53.3614 14.9566 53.3585 14.8076 53.3856C14.6534 53.4317 14.5159 53.5214 14.4116 53.6438C14.3073 53.7663 14.2406 53.9163 14.2196 54.0758C14.1986 54.2353 14.2242 54.3975 14.2933 54.5428C14.3624 54.6881 14.472 54.8103 14.609 54.8946C15.603 55.3857 16.658 55.7423 17.7461 55.9549C17.8891 55.9946 18.6912 56.1058 18.9652 56.1415L19.2353 56.1773C20.6425 56.4146 22.0654 56.5474 23.4922 56.5744C24.8305 56.5744 26.1608 56.4394 27.4951 56.3838C30.1438 56.2607 32.7925 56.1773 35.4372 55.9311C35.463 56.0261 35.5137 56.1125 35.5841 56.1813C35.9177 56.4831 36.4141 56.3322 36.8271 56.3719H36.6523C37.58 56.4047 38.5088 56.3728 39.4321 56.2766C40.4963 56.1846 41.565 56.1541 42.6327 56.1852C42.8194 56.1852 43.006 56.2091 43.1927 56.2289C43.2703 56.322 43.3699 56.3944 43.4825 56.4394C43.6015 56.4962 43.7343 56.5178 43.8652 56.5016C43.9961 56.4855 44.1196 56.4322 44.2212 56.348L44.519 56.3758H44.6024C45.3211 56.622 45.9287 55.8874 45.4045 55.3156Z" fill="#161616"/>
</g>
<g opacity="0.13">
<path d="M51.6708 54.3427C51.6456 54.2504 51.6024 54.164 51.5438 54.0885C51.4616 53.9643 51.3657 53.8498 51.2578 53.747C51.0674 53.5315 50.8646 53.3273 50.6503 53.1355C49.6456 52.1427 48.5258 51.273 47.4734 50.3557C46.2464 49.3113 45.0908 48.2034 43.7962 47.2226C43.002 46.476 42.0251 47.5641 42.8869 48.2034L42.9424 48.2471C42.8145 48.3832 42.7348 48.5575 42.7154 48.7433C42.6961 48.929 42.7381 49.116 42.8352 49.2756L42.9107 49.3947C42.8821 49.4672 42.8583 49.5415 42.8392 49.6171C42.7721 50.2254 42.8624 50.8407 43.1013 51.4041C43.0716 51.6966 43.0917 51.992 43.1609 52.2777C43.3043 52.9966 43.6053 53.6747 44.0424 54.2632C44.8366 55.4188 47.2471 57.73 48.5099 56.0542C48.5766 55.9412 48.6186 55.8153 48.633 55.6849C48.7678 55.7975 48.9313 55.8705 49.1051 55.8958C49.279 55.921 49.4565 55.8975 49.6178 55.8278C49.7673 55.7656 49.8975 55.6648 49.9952 55.5357C50.0929 55.4067 50.1545 55.2539 50.1737 55.0932L50.3286 55.2163L50.3842 55.2481C50.4559 55.2892 50.5318 55.3225 50.6106 55.3473C50.7525 55.39 50.9032 55.3944 51.0474 55.3601C51.1916 55.3258 51.3241 55.2541 51.4317 55.1521C51.5393 55.0502 51.6181 54.9217 51.6601 54.7795C51.702 54.6374 51.7058 54.4867 51.6708 54.3427Z" fill="#161616"/>
</g>
<g opacity="0.13">
<path d="M50.3286 55.2282L50.1698 55.1011C50.22 55.1468 50.273 55.1893 50.3286 55.2282Z" fill="#161616"/>
</g>
<g opacity="0.13">
<path d="M36.2711 28.5229C36.1334 28.0958 35.8998 27.7059 35.5881 27.3832C35.191 26.9622 34.8256 26.5334 34.4285 26.1204C32.7845 24.4287 31.0611 22.8045 29.4726 21.089C28.9167 20.4696 28.3806 19.8302 27.7969 19.2346C27.5904 19.0559 27.4395 18.7898 27.1813 18.6866C27.0554 18.631 26.9148 18.6176 26.7806 18.6483C26.6464 18.679 26.5257 18.7523 26.4364 18.8571C26.3472 18.962 26.2942 19.0929 26.2853 19.2303C26.2764 19.3677 26.3121 19.5043 26.3871 19.6198C26.407 19.6476 26.4268 19.6793 26.4507 19.7071L26.5619 19.8501L26.5976 19.8977C28.3647 22.1334 30.4535 24.0792 32.3874 26.172C33.1141 26.9662 34.3729 28.3283 34.77 28.7492L34.8097 28.8088V28.8445L34.7065 28.8723C33.7699 28.7967 32.8292 28.7848 31.891 28.8366H31.7361C31.5808 28.7811 31.411 28.7811 31.2556 28.8366C31.0259 28.8367 30.8007 28.8999 30.6044 29.0192C30.4443 29.0826 30.3143 29.2043 30.2406 29.3599C30.1668 29.5154 30.1549 29.6932 30.2073 29.8571C30.3622 31.3225 30.6798 34.5986 30.7235 36.7707C30.834 37.9295 30.8632 39.0945 30.8109 40.2573C30.8109 40.3765 30.8109 40.4996 30.8109 40.6227C30.8089 40.6544 30.8089 40.6862 30.8109 40.718C29.8955 40.8997 28.9644 40.9902 28.0311 40.988C27.1777 40.8993 26.3186 40.8781 25.4619 40.9245C25.2894 40.9129 25.1169 40.9455 24.9606 41.0191C24.8042 41.0928 24.6693 41.2051 24.5684 41.3454C24.4935 41.4806 24.4598 41.6347 24.4712 41.7889C24.4827 41.943 24.5389 42.0904 24.6329 42.2131C24.7269 42.3358 24.8546 42.4283 25.0005 42.4795C25.1463 42.5306 25.3039 42.5381 25.4539 42.501H25.5651C25.9946 42.4653 26.4263 42.4653 26.8557 42.501C27.5144 42.5802 28.1779 42.6134 28.8412 42.6003C29.4383 42.5693 30.0333 42.5083 30.6242 42.4176C30.874 42.3894 31.1219 42.347 31.3668 42.2905C31.6178 42.3019 31.8675 42.2487 32.092 42.1361C32.3166 42.0235 32.5085 41.8551 32.6495 41.6472C32.7125 41.6067 32.7655 41.5524 32.8044 41.4884C32.8806 41.1308 32.8967 40.7631 32.852 40.4003C32.8511 40.0024 32.8299 39.6047 32.7885 39.209C32.7806 39.0701 32.7426 38.9346 32.6773 38.8119V38.6133C32.6098 35.9924 32.3755 33.3755 32.2802 30.7546C32.2802 30.6196 32.2802 30.4806 32.2802 30.3575C32.7408 30.3575 33.2054 30.3575 33.6661 30.3575C33.7109 30.3635 33.7563 30.3635 33.8011 30.3575H34.0711C34.3802 30.3807 34.6909 30.366 34.9964 30.3138C35.0581 30.2992 35.118 30.2779 35.1751 30.2503C35.4623 30.1912 35.7276 30.0537 35.9415 29.8532C36.085 29.6821 36.1821 29.4769 36.2234 29.2575C36.3006 29.0205 36.3169 28.7679 36.2711 28.5229Z" fill="#161616"/>
</g>
<g opacity="0.13">
<path d="M26.5539 19.866L26.4507 19.7508L26.5539 19.866Z" fill="#161616"/>
</g>
</g>
<defs>
<clipPath id="clip0_18_75">
<rect width="45" height="44.0628" fill="white" transform="translate(12 13)"/>
</clipPath>
</defs>
</svg>
