<svg width="25" height="25" viewBox="0 0 25 25" fill="none" xmlns="http://www.w3.org/2000/svg">
<path d="M12.499 7.68457C11.2215 7.68457 9.99638 8.19204 9.09308 9.09534C8.18978 9.99864 7.68231 11.2238 7.68231 12.5012C7.68231 13.7787 8.18978 15.0038 9.09308 15.9071C9.99638 16.8104 11.2215 17.3179 12.499 17.3179C13.7764 17.3179 15.0016 16.8104 15.9049 15.9071C16.8082 15.0038 17.3156 13.7787 17.3156 12.5012C17.3156 11.2238 16.8082 9.99864 15.9049 9.09534C15.0016 8.19204 13.7764 7.68457 12.499 7.68457V7.68457ZM12.499 15.6294C11.6691 15.6294 10.8732 15.2997 10.2863 14.7129C9.69949 14.126 9.36981 13.3301 9.36981 12.5002C9.36981 11.6703 9.69949 10.8744 10.2863 10.2875C10.8732 9.70071 11.6691 9.37103 12.499 9.37103C13.3289 9.37103 14.1248 9.70071 14.7116 10.2875C15.2985 10.8744 15.6281 11.6703 15.6281 12.5002C15.6281 13.3301 15.2985 14.126 14.7116 14.7129C14.1248 15.2997 13.3289 15.6294 12.499 15.6294V15.6294Z" fill="white"/>
<path d="M17.5063 8.6306C18.1264 8.6306 18.6292 8.12785 18.6292 7.50768C18.6292 6.88751 18.1264 6.38477 17.5063 6.38477C16.8861 6.38477 16.3834 6.88751 16.3834 7.50768C16.3834 8.12785 16.8861 8.6306 17.5063 8.6306Z" fill="white"/>
<path d="M21.3885 6.3653C21.1474 5.74257 20.7789 5.17705 20.3066 4.70494C19.8343 4.23284 19.2686 3.86454 18.6458 3.62363C17.917 3.35005 17.1471 3.20211 16.3687 3.18613C15.3656 3.14238 15.0479 3.12988 12.5042 3.12988C9.96041 3.12988 9.63437 3.12988 8.63957 3.18613C7.86186 3.2013 7.09245 3.34926 6.36458 3.62363C5.74159 3.86426 5.17579 4.23246 4.70346 4.7046C4.23114 5.17674 3.86273 5.74241 3.62187 6.3653C3.34823 7.09406 3.20063 7.86409 3.18541 8.64238C3.14062 9.64447 3.12708 9.96218 3.12708 12.507C3.12708 15.0507 3.12708 15.3747 3.18541 16.3716C3.20103 17.1507 3.34791 17.9195 3.62187 18.6497C3.86341 19.2723 4.23218 19.8378 4.70461 20.3099C5.17705 20.7819 5.74277 21.1503 6.36562 21.3913C7.09211 21.6759 7.86184 21.8344 8.64166 21.8601C9.64478 21.9038 9.96249 21.9174 12.5062 21.9174C15.05 21.9174 15.376 21.9174 16.3708 21.8601C17.1491 21.8443 17.919 21.6967 18.6479 21.4236C19.2706 21.1822 19.8361 20.8136 20.3083 20.3413C20.7805 19.8691 21.1491 19.3036 21.3906 18.6809C21.6646 17.9518 21.8114 17.183 21.8271 16.4038C21.8719 15.4018 21.8854 15.0841 21.8854 12.5393C21.8854 9.99447 21.8854 9.67155 21.8271 8.67468C21.8149 7.88538 21.6666 7.1041 21.3885 6.3653V6.3653ZM20.1198 16.2945C20.1131 16.8948 20.0035 17.4895 19.7958 18.0528C19.6394 18.4579 19.3999 18.8257 19.0928 19.1327C18.7856 19.4396 18.4177 19.6789 18.0125 19.8351C17.4554 20.0418 16.867 20.1514 16.2729 20.1591C15.2833 20.2049 15.0042 20.2163 12.4667 20.2163C9.92708 20.2163 9.6677 20.2163 8.65937 20.1591C8.06554 20.1518 7.47741 20.0422 6.92083 19.8351C6.51425 19.6799 6.14479 19.441 5.83634 19.134C5.52789 18.827 5.28732 18.4586 5.1302 18.0528C4.92546 17.4956 4.81594 16.9078 4.80624 16.3143C4.76145 15.3247 4.75103 15.0455 4.75103 12.508C4.75103 9.96947 4.75103 9.71009 4.80624 8.70072C4.81297 8.10074 4.92255 7.50636 5.1302 6.94342C5.44791 6.12155 6.09895 5.47467 6.92083 5.16009C7.47769 4.95399 8.06564 4.84443 8.65937 4.83613C9.64999 4.79134 9.92812 4.77884 12.4667 4.77884C15.0052 4.77884 15.2656 4.77884 16.2729 4.83613C16.8671 4.84328 17.4556 4.95287 18.0125 5.16009C18.4176 5.31663 18.7856 5.55614 19.0927 5.86325C19.3998 6.17036 19.6393 6.53829 19.7958 6.94342C20.0006 7.50066 20.1101 8.08838 20.1198 8.68197C20.1646 9.67259 20.176 9.95072 20.176 12.4893C20.176 15.0268 20.176 15.2997 20.1312 16.2955H20.1198V16.2945Z" fill="white"/>
</svg>
