<svg width="25" height="25" viewBox="0 0 25 25" fill="none" xmlns="http://www.w3.org/2000/svg">
<path d="M5.1906 7.49681C6.44935 7.49681 7.46977 6.47639 7.46977 5.21764C7.46977 3.95889 6.44935 2.93848 5.1906 2.93848C3.93186 2.93848 2.91144 3.95889 2.91144 5.21764C2.91144 6.47639 3.93186 7.49681 5.1906 7.49681Z" fill="white"/>
<path d="M9.62186 9.22363V21.8684H13.5479V15.6153C13.5479 13.9653 13.8583 12.3674 15.9041 12.3674C17.9219 12.3674 17.9469 14.2538 17.9469 15.7195V21.8695H21.875V14.9351C21.875 11.5288 21.1416 8.91113 17.1604 8.91113C15.2489 8.91113 13.9677 9.96009 13.4437 10.9528H13.3906V9.22363H9.62186V9.22363ZM3.22394 9.22363H7.15623V21.8684H3.22394V9.22363Z" fill="white"/>
</svg>
