<svg width="103" height="103" viewBox="0 0 103 103" fill="none" xmlns="http://www.w3.org/2000/svg">
<circle cx="51.2349" cy="51.8916" r="50.9272" fill="#FA5D32"/>
<path d="M40.7499 41.391C40.7499 39.9364 40.7499 39.209 41.0532 38.8081C41.3174 38.4588 41.7213 38.2427 42.1585 38.2166C42.6603 38.1866 43.2655 38.5901 44.4758 39.397L60.2267 49.8975C61.2268 50.5643 61.7268 50.8976 61.9011 51.3178C62.0534 51.6852 62.0534 52.098 61.9011 52.4654C61.7268 52.8856 61.2268 53.2189 60.2267 53.8857L44.4758 64.3862C43.2655 65.1931 42.6603 65.5966 42.1585 65.5666C41.7213 65.5405 41.3174 65.3244 41.0532 64.9751C40.7499 64.5742 40.7499 63.8468 40.7499 62.3922V41.391Z" stroke="white" stroke-width="2" stroke-linecap="round" stroke-linejoin="round"/>
</svg>
