<svg width="70" height="70" viewBox="0 0 70 70" fill="none" xmlns="http://www.w3.org/2000/svg">
<circle opacity="0.2" cx="35" cy="35" r="35" fill="#FA5D32"/>
<g clip-path="url(#clip0_18_7)">
<path d="M32.168 32.1465C25.8729 30.0762 22.0026 31.0286 20.2971 32.0891C19.6217 32.5112 17.2576 34.551 15.9068 42.1633C15.8527 42.4706 15.7953 42.8387 16.0182 43.038C18.129 41.6939 21.8203 38.2896 26.1769 35.9897C28.4464 34.801 27.19 36.9252 28.9529 36.2869C29.6979 36.0792 30.4064 35.7579 31.0536 35.3346C31.6716 34.8685 32.6273 33.2238 32.168 32.1465Z" fill="white"/>
<path d="M16.0182 43.3284C15.9459 43.3289 15.8761 43.3024 15.8223 43.2541C15.4846 42.9367 15.5589 42.4402 15.6197 42.1126C17.0043 34.345 19.4292 32.2849 20.1418 31.8425C21.1178 31.2346 24.8699 29.4379 32.2592 31.8695C32.2978 31.8835 32.3333 31.905 32.3634 31.9328C32.3936 31.9607 32.4179 31.9943 32.4348 32.0316C32.965 33.2609 31.9519 35.0205 31.2325 35.5676C30.6598 35.9579 30.0297 36.2564 29.3649 36.4524L29.0542 36.5639C28.1019 36.9016 27.7911 36.5639 27.5547 36.1586C27.4061 35.9121 27.2981 35.7331 26.3119 36.2498C23.4683 37.7459 20.9253 39.7114 18.8821 41.2953C17.825 42.1126 16.9131 42.8185 16.1803 43.2845C16.1316 43.3144 16.0753 43.3297 16.0182 43.3284ZM25.3528 31.1975C22.5801 31.1975 21.0165 31.9708 20.4491 32.3255C19.983 32.6159 17.5717 34.47 16.1938 42.2004C16.1669 42.3282 16.1522 42.4583 16.1499 42.5888C16.8084 42.143 17.6122 41.5216 18.5139 40.8191C20.5842 39.2352 23.1711 37.2494 26.0418 35.7331C27.2744 35.0846 27.7101 35.2873 28.0681 35.858C28.2133 36.1012 28.2876 36.2228 28.8685 36.0134L29.1859 35.9019C29.7866 35.7234 30.3561 35.4534 30.8745 35.1015C31.4284 34.6828 32.2254 33.2913 31.9384 32.3829C29.8188 31.6453 27.5965 31.2452 25.3528 31.1975Z" fill="#161616"/>
<path d="M38.7063 39.9411C39.608 46.449 37.9836 49.6033 36.6158 51.0859C36.0721 51.6701 33.5763 54.0477 25.8088 53.97C25.4947 53.97 25.1333 53.97 24.9644 53.6998C26.6834 51.8897 30.7462 48.9143 33.8161 45.0913C35.4135 43.0988 33.0765 43.9262 34.0289 42.3288C34.3663 41.6385 34.8045 41.0022 35.3291 40.4409C35.9066 39.9242 37.7101 39.3028 38.7063 39.9411Z" fill="white"/>
<path d="M26.1431 54.247H25.7783C25.4406 54.247 24.9374 54.247 24.6875 53.8383C24.6537 53.784 24.6389 53.7199 24.6457 53.6563C24.6524 53.5927 24.6802 53.5331 24.7246 53.4871C25.319 52.8589 26.187 52.0991 27.19 51.2176C29.1353 49.529 31.5534 47.3946 33.5561 44.8955C34.2315 44.0343 34.0897 43.8823 33.8735 43.7101C33.5358 43.4061 33.2319 43.0346 33.7486 42.1667L33.9174 41.883C34.2329 41.2689 34.6445 40.7091 35.1366 40.2248C35.812 39.6202 37.7371 38.9617 38.8515 39.7013C38.8857 39.7245 38.9147 39.7544 38.9368 39.7893C38.9589 39.8241 38.9735 39.8632 38.9799 39.9039C39.8782 46.4118 38.3044 49.6776 36.8117 51.2716C35.9741 52.1734 33.2589 54.247 26.1431 54.247ZM25.39 53.6357C25.5195 53.6561 25.6506 53.6651 25.7817 53.6627H26.1465C33.0326 53.6627 35.6027 51.714 36.3895 50.8664C37.7776 49.377 39.25 46.3038 38.4159 40.1201C37.5648 39.681 36.0518 40.191 35.5182 40.6537C35.0734 41.0986 34.7008 41.6102 34.4139 42.17L34.2416 42.4605C33.9309 42.9839 34.039 43.0751 34.2416 43.2643C34.7448 43.7033 34.8664 44.1694 33.9951 45.2534C31.9688 47.7931 29.5203 49.9309 27.5581 51.6499C26.7138 52.4098 25.954 53.0751 25.39 53.6357Z" fill="#161616"/>
<path d="M54.5792 29.2083L32.3605 45.993C32.3605 45.993 25.1097 37.4419 25.2245 37.0772C32.0161 30.522 38.5138 24.4701 45.4844 18.104C47.0717 18.9449 49.1014 19.4549 50.2564 20.8058C50.8856 21.591 51.429 22.4413 51.8775 23.3421L53.3668 26.1114C53.8802 27.0941 54.4171 28.0972 54.5792 29.2083Z" fill="white"/>
<path d="M32.3605 46.2835C32.3182 46.2841 32.2763 46.2753 32.2377 46.2578C32.1992 46.2403 32.165 46.2144 32.1376 46.1822C32.1174 46.1619 30.3004 44.0174 28.524 41.856C24.8091 37.3676 24.8766 37.2022 24.9442 36.9928C24.958 36.9447 24.9849 36.9015 25.0218 36.8678C31.4386 30.6706 37.8924 24.6423 45.2851 17.8879C45.3299 17.8464 45.3865 17.8199 45.447 17.812C45.5075 17.8041 45.569 17.8153 45.6229 17.844C46.0889 18.0939 46.5887 18.31 47.119 18.5363C48.3516 19.0699 49.6249 19.617 50.4962 20.6167C51.1337 21.4182 51.6839 22.2854 52.1375 23.2036L53.6268 25.9729C54.1604 26.9658 54.7109 27.9992 54.8967 29.1644C54.9049 29.2166 54.8986 29.2702 54.8783 29.319C54.858 29.3679 54.8247 29.4102 54.7819 29.4413L32.5361 46.2261C32.4855 46.264 32.4238 46.2842 32.3605 46.2835ZM25.569 37.165C26.1262 38.0937 29.9053 42.653 32.4044 45.608L54.2719 29.0968C54.0242 28.0983 53.6268 27.143 53.0933 26.2634L51.6073 23.494C51.1724 22.612 50.6449 21.7787 50.0335 21.0084C49.2702 20.1134 48.0578 19.5934 46.8893 19.0868C46.4368 18.8909 45.9707 18.6916 45.5384 18.4687C38.2571 25.1185 31.908 31.0489 25.569 37.1515V37.165Z" fill="#161616"/>
<path d="M54.6974 29.1239C51.8443 25.2737 48.7681 21.5941 45.4844 18.104C49.3783 17.4117 53.691 16.8983 57.5984 16.3039C57.7567 16.275 57.9197 16.2869 58.072 16.3388C58.2242 16.3906 58.3607 16.4806 58.4684 16.6001C58.576 16.7196 58.6513 16.8647 58.687 17.0215C58.7227 17.1784 58.7177 17.3418 58.6724 17.4961C57.541 21.5116 55.8389 25.4562 54.6974 29.1239Z" fill="white"/>
<path d="M54.6974 29.4177C54.6521 29.4173 54.6075 29.4064 54.5671 29.3859C54.5266 29.3654 54.4915 29.3358 54.4644 29.2995C51.62 25.4577 48.5516 21.7871 45.275 18.3066C45.2383 18.2683 45.2126 18.2208 45.2007 18.1691C45.1888 18.1173 45.1911 18.0633 45.2075 18.0128C45.2238 17.9627 45.2536 17.918 45.2934 17.8835C45.3333 17.849 45.3818 17.826 45.4337 17.8169C47.8957 17.3779 50.5468 17.0098 53.1101 16.6518C54.5792 16.4458 56.1159 16.233 57.5546 16.0169C57.7633 15.9817 57.9775 16.0001 58.1772 16.0704C58.3769 16.1407 58.5554 16.2606 58.6961 16.4188C58.8354 16.5726 58.9336 16.7591 58.9815 16.9611C59.0293 17.163 59.0252 17.3738 58.9696 17.5738C58.3313 19.8467 57.5073 22.0925 56.7136 24.2674C56.0855 25.9864 55.4911 27.6109 54.9946 29.2117C54.9785 29.2629 54.9485 29.3086 54.908 29.3437C54.8674 29.3789 54.8179 29.4022 54.765 29.4109L54.6974 29.4177ZM46.0754 18.2965C49.0909 21.5413 51.9296 24.9459 54.5792 28.4957C55.0453 27.057 55.5755 25.6014 56.1361 24.0648C56.9298 21.9034 57.7471 19.6744 58.3786 17.4151C58.4113 17.3105 58.4163 17.1992 58.3932 17.0921C58.3701 16.985 58.3197 16.8856 58.2469 16.8038C58.1706 16.7194 58.0743 16.6557 57.9669 16.6185C57.8594 16.5813 57.7443 16.5719 57.6322 16.591C56.1902 16.8139 54.6603 17.0267 53.1811 17.2327C50.817 17.5603 48.3719 17.9014 46.0754 18.2965Z" fill="#161616"/>
<path d="M45.7852 32.2299C47.6475 30.8932 48.1344 28.3847 46.8727 26.627C45.6111 24.8693 43.0787 24.528 41.2164 25.8647C39.3542 27.2014 38.8673 29.7099 40.1289 31.4676C41.3906 33.2253 43.923 33.5666 45.7852 32.2299Z" fill="#FA5D32"/>
<path d="M43.2791 33.3319C42.6677 33.3415 42.0617 33.2156 41.5047 32.9634C40.9476 32.7111 40.4533 32.3387 40.0572 31.8729C39.7129 31.4596 39.4544 30.9818 39.2967 30.4675C39.139 29.9532 39.0852 29.4126 39.1386 28.8773C39.1964 28.2838 39.3716 27.7077 39.6539 27.1824C39.9363 26.6572 40.3202 26.1932 40.7833 25.8176C42.6746 24.264 45.4236 24.443 46.913 26.2228C47.2572 26.6362 47.5158 27.114 47.6735 27.6283C47.8312 28.1426 47.8849 28.6831 47.8316 29.2184C47.7737 29.8119 47.5986 30.3881 47.3162 30.9133C47.0339 31.4386 46.65 31.9025 46.1869 32.2782C45.3681 32.9543 44.3409 33.3265 43.2791 33.3319ZM43.7181 25.3414C42.7866 25.3447 41.8852 25.6719 41.1683 26.2667C40.7618 26.5915 40.4242 26.9942 40.1754 27.4512C39.9266 27.9082 39.7716 28.4103 39.7195 28.928C39.6733 29.3866 39.7191 29.8499 39.8543 30.2906C39.9894 30.7314 40.2111 31.1407 40.5064 31.4947C41.7897 33.0279 44.1707 33.1833 45.8154 31.8324C46.2219 31.5076 46.5594 31.1049 46.8082 30.6479C47.057 30.1909 47.212 29.6888 47.2642 29.1711C47.3104 28.7125 47.2645 28.2492 47.1294 27.8085C46.9943 27.3678 46.7726 26.9584 46.4773 26.6045C46.1387 26.2038 45.7159 25.8828 45.2389 25.6645C44.7619 25.4462 44.2426 25.3358 43.7181 25.3414Z" fill="#161616"/>
<path d="M10.2938 52.2713C10.2508 52.2713 10.2082 52.2619 10.1692 52.2438C10.1301 52.2257 10.0954 52.1994 10.0675 52.1666C10.0182 52.1069 9.99435 52.0301 10.0013 51.9529C10.0083 51.8758 10.0454 51.8045 10.1047 51.7546C14.5491 48.0835 19.1928 44.5409 23.904 41.2143C23.9672 41.1693 24.0457 41.1512 24.1222 41.1638C24.1988 41.1765 24.2672 41.2189 24.3126 41.2818C24.3564 41.3458 24.3735 41.4242 24.3602 41.5006C24.347 41.5769 24.3045 41.645 24.2417 41.6905C19.5406 45.0103 14.9105 48.5496 10.4796 52.2037C10.4276 52.2475 10.3618 52.2715 10.2938 52.2713Z" fill="#161616"/>
<path d="M20.8341 48.8974C20.7743 48.897 20.716 48.8783 20.6671 48.8438C20.6182 48.8094 20.581 48.7608 20.5605 48.7046C20.5399 48.6485 20.537 48.5874 20.5521 48.5295C20.5672 48.4716 20.5996 48.4197 20.645 48.3807C22.2964 46.9758 24.0222 45.5979 25.7479 44.2943C25.7779 44.2657 25.8137 44.2438 25.8528 44.2301C25.8919 44.2164 25.9336 44.2113 25.9748 44.2151C26.0161 44.2188 26.0561 44.2314 26.0922 44.2518C26.1282 44.2723 26.1594 44.3003 26.1838 44.3339C26.2081 44.3675 26.2249 44.4058 26.2332 44.4465C26.2415 44.4871 26.2409 44.529 26.2316 44.5694C26.2223 44.6098 26.2045 44.6478 26.1793 44.6807C26.1541 44.7136 26.1222 44.7408 26.0857 44.7604C24.3599 46.0606 22.651 47.425 21.0198 48.813C20.9704 48.863 20.9043 48.893 20.8341 48.8974Z" fill="#161616"/>
<path d="M25.2211 49.5898C25.1653 49.5868 25.1116 49.5679 25.0663 49.5352C25.021 49.5025 24.9861 49.4574 24.9657 49.4053C24.9454 49.3533 24.9406 49.2965 24.9517 49.2418C24.9629 49.187 24.9896 49.1366 25.0286 49.0967C26.0418 48.2051 27.082 47.3304 28.139 46.4996C28.1685 46.4709 28.2038 46.4487 28.2424 46.4345C28.2811 46.4203 28.3223 46.4144 28.3633 46.4171C28.4044 46.4198 28.4445 46.4312 28.4809 46.4504C28.5173 46.4696 28.5493 46.4962 28.5748 46.5286C28.6002 46.5609 28.6186 46.5983 28.6287 46.6382C28.6388 46.6781 28.6404 46.7197 28.6334 46.7603C28.6264 46.8009 28.6109 46.8395 28.588 46.8737C28.5651 46.908 28.5352 46.937 28.5004 46.9589C27.4501 47.7829 26.4133 48.6475 25.4136 49.5323C25.3589 49.5749 25.2902 49.5954 25.2211 49.5898Z" fill="#161616"/>
<path d="M18.2607 39.7992C18.2344 39.7975 18.2098 39.7856 18.1922 39.7661C18.1745 39.7465 18.1652 39.7209 18.1661 39.6945L18.2911 37.4352C18.2911 37.4092 18.3014 37.3843 18.3198 37.3659C18.3381 37.3476 18.363 37.3372 18.389 37.3372C18.415 37.3372 18.4399 37.3476 18.4583 37.3659C18.4766 37.3843 18.4869 37.4092 18.4869 37.4352L18.362 39.6979C18.3625 39.7114 18.3602 39.7247 18.3552 39.7372C18.3503 39.7498 18.3429 39.7611 18.3334 39.7706C18.3239 39.7801 18.3125 39.7876 18.3 39.7925C18.2875 39.7974 18.2741 39.7997 18.2607 39.7992Z" fill="#161616"/>
<path d="M19.875 38.6037C19.8623 38.6037 19.8497 38.6011 19.838 38.5962C19.8263 38.5912 19.8157 38.584 19.8069 38.5748C19.7981 38.5657 19.7912 38.5548 19.7866 38.543C19.7821 38.5311 19.78 38.5184 19.7804 38.5057L19.9121 33.9837C19.9126 33.9708 19.9155 33.9581 19.9209 33.9464C19.9262 33.9347 19.9338 33.9242 19.9432 33.9154C19.9526 33.9066 19.9637 33.8998 19.9757 33.8952C19.9878 33.8907 20.0006 33.8886 20.0135 33.8891C20.0391 33.8908 20.0632 33.9022 20.0808 33.9211C20.0983 33.9399 20.1081 33.9647 20.108 33.9904L19.9729 38.5091C19.9729 38.5218 19.9704 38.5344 19.9654 38.5461C19.9605 38.5578 19.9532 38.5684 19.944 38.5772C19.9349 38.586 19.9241 38.5929 19.9122 38.5975C19.9003 38.602 19.8877 38.6041 19.875 38.6037Z" fill="#161616"/>
<path d="M21.6548 37.9148C21.6421 37.9148 21.6295 37.9122 21.6178 37.9072C21.6061 37.9023 21.5955 37.895 21.5867 37.8859C21.5779 37.8767 21.571 37.8659 21.5664 37.854C21.5619 37.8422 21.5598 37.8295 21.5602 37.8168L21.6818 32.5484C21.6849 32.5232 21.6968 32.5 21.7153 32.4827C21.7338 32.4654 21.7578 32.4552 21.7831 32.4538C21.7958 32.4538 21.8084 32.4563 21.8201 32.4613C21.8318 32.4663 21.8424 32.4735 21.8512 32.4827C21.86 32.4918 21.8669 32.5026 21.8715 32.5145C21.876 32.5264 21.8781 32.539 21.8777 32.5517L21.7527 37.8202C21.7518 37.8456 21.7411 37.8696 21.7229 37.8873C21.7046 37.9049 21.6802 37.9148 21.6548 37.9148Z" fill="#161616"/>
<path d="M23.4109 36.4693C23.3982 36.4698 23.3856 36.4676 23.3737 36.4631C23.3618 36.4586 23.351 36.4517 23.3419 36.4428C23.3327 36.434 23.3254 36.4234 23.3205 36.4117C23.3155 36.4 23.313 36.3875 23.313 36.3747C23.2953 34.984 23.3607 33.5935 23.5089 32.2106C23.5101 32.1982 23.5138 32.1861 23.5198 32.1751C23.5258 32.1641 23.5338 32.1544 23.5436 32.1466C23.5533 32.1387 23.5645 32.1329 23.5765 32.1294C23.5885 32.1259 23.6011 32.1248 23.6135 32.1262C23.6264 32.1275 23.6389 32.1313 23.6504 32.1374C23.6618 32.1435 23.6718 32.1519 23.68 32.1619C23.6882 32.172 23.6943 32.1835 23.6979 32.196C23.7016 32.2084 23.7028 32.2214 23.7014 32.2343C23.5542 33.6082 23.4899 34.9897 23.5089 36.3714C23.5089 36.3973 23.4985 36.4223 23.4802 36.4406C23.4618 36.459 23.4369 36.4693 23.4109 36.4693Z" fill="#161616"/>
<path d="M25.2414 35.5304C25.2157 35.5287 25.1916 35.5173 25.1741 35.4985C25.1565 35.4797 25.1468 35.4549 25.1468 35.4291L25.2684 32.1633C25.2701 32.1377 25.2815 32.1136 25.3004 32.096C25.3192 32.0785 25.344 32.0687 25.3697 32.0688C25.3826 32.0692 25.3952 32.0722 25.4069 32.0775C25.4187 32.0828 25.4292 32.0904 25.438 32.0998C25.4468 32.1093 25.4536 32.1203 25.4581 32.1324C25.4626 32.1444 25.4647 32.1572 25.4643 32.1701L25.3427 35.4359C25.341 35.4616 25.3296 35.4856 25.3107 35.5032C25.2919 35.5207 25.2671 35.5305 25.2414 35.5304Z" fill="#161616"/>
<path d="M27.0516 33.96C27.0387 33.9584 27.0264 33.9542 27.0153 33.9476C27.0042 33.941 26.9945 33.9323 26.9869 33.9218C26.9793 33.9114 26.974 33.8995 26.9711 33.8869C26.9683 33.8743 26.9681 33.8613 26.9705 33.8486L27.2238 32.2106C27.23 32.1871 27.2446 32.1668 27.265 32.1535C27.2853 32.1403 27.3098 32.135 27.3338 32.1388C27.3578 32.1426 27.3795 32.1551 27.3947 32.174C27.41 32.1929 27.4176 32.2168 27.4163 32.241L27.1664 33.8722C27.1622 33.8988 27.1479 33.9228 27.1266 33.9391C27.1052 33.9555 27.0783 33.9629 27.0516 33.96Z" fill="#161616"/>
<path d="M28.6996 53.1223C28.6759 53.1216 28.6532 53.1124 28.6358 53.0962C28.6184 53.08 28.6075 53.0581 28.6051 53.0345L28.4497 51.3459C28.4539 51.3235 28.4659 51.3032 28.4834 51.2886C28.501 51.2741 28.5231 51.2661 28.546 51.2661C28.5688 51.2661 28.5909 51.2741 28.6085 51.2886C28.6261 51.3032 28.638 51.3235 28.6422 51.3459L28.7976 53.0345C28.799 53.0474 28.7978 53.0604 28.7941 53.0728C28.7905 53.0853 28.7844 53.0968 28.7762 53.1069C28.768 53.1169 28.758 53.1253 28.7466 53.1314C28.7351 53.1375 28.7226 53.1413 28.7098 53.1426L28.6996 53.1223Z" fill="#161616"/>
<path d="M30.3916 52.6056C30.3695 52.6048 30.3484 52.5967 30.3313 52.5827C30.3142 52.5687 30.3022 52.5495 30.2971 52.528C30.1238 51.6906 30.011 50.8418 29.9593 49.9883C29.9583 49.9625 29.9672 49.9373 29.9842 49.9179C30.0011 49.8984 30.0248 49.8862 30.0505 49.8836C30.0635 49.8822 30.0766 49.8835 30.089 49.8874C30.1015 49.8913 30.113 49.8977 30.1228 49.9063C30.1326 49.9149 30.1406 49.9254 30.1462 49.9372C30.1517 49.9489 30.1548 49.9618 30.1552 49.9748C30.2066 50.8194 30.3195 51.6592 30.4929 52.4874C30.4954 52.5001 30.4953 52.5131 30.4927 52.5257C30.4902 52.5383 30.4851 52.5503 30.4779 52.561C30.4707 52.5716 30.4614 52.5808 30.4507 52.5878C30.4399 52.5949 30.4279 52.5998 30.4153 52.6023L30.3916 52.6056Z" fill="#161616"/>
<path d="M32.0971 52.4368C32.0753 52.4366 32.0542 52.4293 32.0371 52.4158C32.0199 52.4024 32.0078 52.3836 32.0025 52.3625C31.7256 51.2378 31.496 50.0828 31.3271 48.9346C31.3247 48.9219 31.3249 48.9089 31.3277 48.8963C31.3306 48.8837 31.3359 48.8718 31.3435 48.8613C31.3511 48.8509 31.3608 48.8421 31.3719 48.8355C31.383 48.829 31.3953 48.8248 31.4082 48.8231C31.4335 48.8201 31.4591 48.8268 31.4798 48.8418C31.5004 48.8568 31.5147 48.8791 31.5196 48.9042C31.6952 50.0491 31.9215 51.1939 32.195 52.3152C32.1986 52.3276 32.1995 52.3406 32.1978 52.3534C32.1961 52.3662 32.1918 52.3785 32.1851 52.3896C32.1785 52.4007 32.1697 52.4103 32.1592 52.4178C32.1487 52.4253 32.1367 52.4306 32.1241 52.4334L32.0971 52.4368Z" fill="#161616"/>
<path d="M33.887 51.4776C33.8657 51.4777 33.8449 51.4708 33.8279 51.458C33.8108 51.4452 33.7984 51.4272 33.7925 51.4067L32.8232 47.5972C32.8197 47.5848 32.8188 47.5718 32.8205 47.559C32.8222 47.5462 32.8265 47.5338 32.8331 47.5228C32.8398 47.5117 32.8486 47.5021 32.8591 47.4946C32.8696 47.487 32.8815 47.4818 32.8941 47.479C32.9188 47.4727 32.9448 47.4763 32.9669 47.4889C32.989 47.5015 33.0053 47.5222 33.0123 47.5466L33.9782 51.3594C33.9844 51.3845 33.9804 51.411 33.9671 51.4331C33.9538 51.4553 33.9323 51.4713 33.9073 51.4776H33.887Z" fill="#161616"/>
<path d="M35.6398 50.3328C35.6198 50.3331 35.6001 50.3271 35.5838 50.3155C35.5674 50.304 35.5551 50.2876 35.5486 50.2686C35.0083 48.7903 34.5959 47.2683 34.3159 45.7195C34.3135 45.7068 34.3136 45.6938 34.3161 45.6812C34.3187 45.6686 34.3238 45.6566 34.331 45.646C34.3382 45.6353 34.3474 45.6262 34.3582 45.6191C34.3689 45.612 34.381 45.6071 34.3936 45.6047C34.4194 45.6015 34.4454 45.6081 34.4666 45.623C34.4879 45.638 34.5028 45.6604 34.5084 45.6857C34.7863 47.22 35.1965 48.7274 35.7344 50.1909C35.7431 50.2151 35.742 50.2418 35.7313 50.2652C35.7205 50.2885 35.701 50.3068 35.677 50.3159L35.6398 50.3328Z" fill="#161616"/>
<path d="M37.0177 48.3503C36.9972 48.3509 36.9771 48.345 36.9601 48.3335C36.9431 48.322 36.9302 48.3054 36.9231 48.2862C36.5145 47.0872 36.143 45.8579 35.8188 44.632C35.8125 44.6074 35.8161 44.5813 35.8287 44.5593C35.8413 44.5372 35.862 44.5209 35.8863 44.5138C35.899 44.5103 35.9122 44.5093 35.9252 44.511C35.9383 44.5126 35.9508 44.5169 35.9622 44.5235C35.9735 44.5301 35.9834 44.539 35.9913 44.5495C35.9991 44.56 36.0048 44.572 36.0079 44.5847C36.3456 45.8039 36.6834 47.0298 37.1089 48.222C37.1131 48.2342 37.115 48.2471 37.1142 48.26C37.1134 48.2729 37.1101 48.2855 37.1045 48.2971C37.0988 48.3087 37.091 48.3191 37.0813 48.3277C37.0716 48.3362 37.0603 48.3428 37.0481 48.3469L37.0177 48.3503Z" fill="#161616"/>
<path d="M38.0545 45.5337C38.0341 45.5339 38.0141 45.5273 37.9977 45.5152C37.9812 45.503 37.9692 45.4858 37.9633 45.4662L37.3554 43.4703C37.3513 43.4581 37.3497 43.4452 37.3507 43.4323C37.3517 43.4195 37.3553 43.407 37.3613 43.3956C37.3673 43.3843 37.3756 43.3742 37.3856 43.3661C37.3957 43.3581 37.4072 43.3521 37.4196 43.3487C37.4318 43.3445 37.4447 43.3429 37.4575 43.3439C37.4704 43.3449 37.4829 43.3486 37.4942 43.3546C37.5056 43.3606 37.5156 43.3688 37.5237 43.3789C37.5318 43.3889 37.5377 43.4004 37.5412 43.4128L38.166 45.4088C38.1725 45.4334 38.1696 45.4596 38.1577 45.4821C38.1458 45.5046 38.1258 45.5219 38.1018 45.5304L38.0545 45.5337Z" fill="#161616"/>
<g opacity="0.13">
<path d="M58.0814 16.9659C57.5816 17.0469 57.6795 17.2766 57.5309 17.5197C56.0416 20.8463 54.7548 24.2438 53.512 27.9351C52.6928 28.4251 51.9116 28.976 51.175 29.5832C50.047 30.3734 47.2811 32.7881 46.1092 33.6561C44.4206 34.9056 41.9484 36.9252 39.9052 38.4517C37.5716 40.1403 35.6162 41.6297 33.5392 43.2035C33.0394 43.5783 32.347 44.1322 32.1883 44.2538C32.0296 44.3754 31.7864 44.5003 31.729 44.7333C31.7077 44.8205 31.7075 44.9114 31.7284 44.9986C31.7493 45.0858 31.7906 45.1668 31.8491 45.2348C31.9075 45.3028 31.9813 45.3559 32.0644 45.3897C32.1475 45.4235 32.2374 45.437 32.3268 45.429C32.3471 45.5197 32.3882 45.6043 32.4468 45.6764C32.5054 45.7485 32.5799 45.806 32.6645 45.8444C32.6918 45.9225 32.7363 45.9934 32.7948 46.0518C32.8533 46.1103 32.9242 46.1548 33.0022 46.1822C33.0671 46.2636 33.1545 46.3243 33.2535 46.3567C33.3526 46.3891 33.4589 46.3919 33.5594 46.3645C33.6709 46.3211 33.7738 46.2582 33.8634 46.1788C34.9272 46.0268 35.937 45.5574 36.9535 45.2264L37.781 44.9258C37.9799 44.879 38.16 44.773 38.2977 44.6219C38.3443 44.5619 38.3829 44.496 38.4125 44.426C38.5657 44.3191 38.6875 44.1732 38.7653 44.0034C38.8431 43.8335 38.8741 43.646 38.8549 43.4601C38.8802 43.1409 38.8802 42.8202 38.8549 42.501C38.8538 42.4457 38.8435 42.3909 38.8245 42.3389V42.3153C38.8245 42.2916 38.8245 42.268 38.8245 42.2443C38.8398 42.1561 38.8398 42.0658 38.8245 41.9775C38.8245 41.9775 38.8245 41.9438 38.8482 41.9235C38.8737 41.8456 38.8809 41.7628 38.8693 41.6816C38.8577 41.6005 38.8275 41.5231 38.7811 41.4555C38.7347 41.3878 38.6734 41.3318 38.6018 41.2917C38.5303 41.2517 38.4505 41.2286 38.3686 41.2244C38.2352 41.232 38.1071 41.2791 38.0005 41.3595C40.3341 39.6405 42.6712 37.9519 44.9204 36.1113C46.349 34.9597 47.2 34.3754 48.6961 33.1427C48.7197 33.1444 48.7434 33.1444 48.767 33.1427C49.1048 33.0178 49.3108 32.6969 49.5978 32.5011C50.4151 31.7986 52.4955 30.6031 53.7315 29.5595C53.9892 29.3694 54.2169 29.1417 54.407 28.8841C54.4699 28.9576 54.5534 29.0106 54.6468 29.036C55.1702 29.1576 55.2513 28.6173 55.3931 28.2525C55.6126 27.6784 55.8254 27.1043 55.9943 26.5133C56.592 24.1492 57.3452 21.8223 58.0409 19.492C58.0589 19.4622 58.0736 19.4305 58.0848 19.3975C58.0848 19.3671 58.0848 19.3367 58.0848 19.3063C58.1219 19.178 58.1624 19.0462 58.203 18.9179C58.2624 18.7543 58.2564 18.574 58.1861 18.4147C58.3009 18.1412 58.4124 17.8676 58.5238 17.5907C58.5463 17.52 58.5521 17.445 58.5407 17.3717C58.5293 17.2983 58.5011 17.2286 58.4582 17.1681C58.4153 17.1075 58.359 17.0577 58.2936 17.0227C58.2282 16.9876 58.1556 16.9681 58.0814 16.9659Z" fill="#161616"/>
</g>
<path d="M34.2146 44.8211C34.1689 44.8222 34.1236 44.8124 34.0825 44.7924C34.0414 44.7724 34.0056 44.7429 33.9782 44.7063L26.9469 35.7162C26.8986 35.6552 26.8765 35.5776 26.8854 35.5004C26.8943 35.4232 26.9334 35.3526 26.9941 35.3042C27.0558 35.2572 27.1335 35.2362 27.2105 35.2456C27.2874 35.2551 27.3577 35.2943 27.4062 35.3548L34.4443 44.3483C34.4921 44.4097 34.5137 44.4876 34.5042 44.5648C34.4947 44.6421 34.4549 44.7124 34.3936 44.7604C34.342 44.7993 34.2793 44.8207 34.2146 44.8211Z" fill="#161616"/>
<g opacity="0.13">
<path d="M47.6627 28.158C47.6188 27.8202 47.6863 27.3812 47.4668 27.0806C47.3853 26.9773 47.2734 26.9021 47.1468 26.8658C47.0203 26.8295 46.8856 26.8339 46.7616 26.8783C46.6377 26.9227 46.5309 27.005 46.4562 27.1134C46.3816 27.2218 46.3429 27.3509 46.3456 27.4825C46.4503 29.7047 45.4742 30.9644 43.5661 31.8391C43.3579 31.9225 43.1418 31.9847 42.9211 32.0249H42.8873C42.7933 32.0484 42.7071 32.0961 42.6374 32.1633C42.5625 32.242 42.513 32.3415 42.4955 32.4487C42.478 32.5559 42.4932 32.666 42.5391 32.7644C42.585 32.8629 42.6596 32.9452 42.7531 33.0006C42.8465 33.0561 42.9545 33.0821 43.0629 33.0752C43.9504 33.0169 44.8073 32.7279 45.5489 32.2369C46.2905 31.7459 46.891 31.0698 47.2912 30.2755C47.5998 29.6148 47.7279 28.8842 47.6627 28.158Z" fill="#161616"/>
</g>
</g>
<defs>
<clipPath id="clip0_18_7">
<rect width="49" height="38.247" fill="white" transform="translate(10 16)"/>
</clipPath>
</defs>
</svg>
