<svg width="24" height="24" viewBox="0 0 24 24" fill="none" xmlns="http://www.w3.org/2000/svg">
<g clip-path="url(#clip0_54_82)">
<path d="M20.9998 6.7049C20.3258 6.98937 19.6109 7.1761 18.8788 7.25887C19.6413 6.82346 20.2268 6.13398 20.5025 5.31247C19.7776 5.72228 18.9846 6.01101 18.1575 6.1662C17.4839 5.48248 16.5242 5.05518 15.462 5.05518C13.4225 5.05518 11.7689 6.63041 11.7689 8.57326C11.7689 8.84904 11.8016 9.11752 11.8646 9.37508C8.79543 9.22831 6.07433 7.82771 4.25289 5.69918C3.93507 6.21878 3.75296 6.82319 3.75296 7.46786C3.75296 8.68848 4.40497 9.76527 5.39582 10.3962C4.80937 10.3787 4.23583 10.2278 3.72308 9.95611C3.72287 9.97085 3.72287 9.98559 3.72287 10.0004C3.72287 11.705 4.99581 13.1269 6.68514 13.4501C6.14133 13.591 5.57091 13.6117 5.01746 13.5104C5.48736 14.9082 6.85121 15.9253 8.46714 15.9537C7.20327 16.8973 5.6109 17.4598 3.88079 17.4598C3.58267 17.4598 3.28876 17.4431 2.99985 17.4106C4.63412 18.4088 6.57524 18.9913 8.66071 18.9913C15.4534 18.9913 19.1678 13.6303 19.1678 8.98127C19.1678 8.82868 19.1643 8.67695 19.1571 8.5261C19.8801 8.02819 20.5041 7.41147 20.9998 6.7049Z" fill="#161616"/>
</g>
<defs>
<clipPath id="clip0_54_82">
<rect width="18" height="14" fill="white" transform="translate(2.99985 5)"/>
</clipPath>
</defs>
</svg>
